<?xml version="1.0" standalone="no"?><!DOCTYPE svg PUBLIC "-//W3C//DTD SVG 1.1//EN" "http://www.w3.org/Graphics/SVG/1.1/DTD/svg11.dtd"><svg height="1366" node-id="1" sillyvg="true" template-height="1366" template-width="1366" version="1.1" viewBox="0 0 1366 1366" width="1366" xmlns="http://www.w3.org/2000/svg" xmlns:xlink="http://www.w3.org/1999/xlink"><defs node-id="98"><clipPath id="clip0_1_220" node-id="95"><path d="M 0.00 0.00 L 1365.33 0.00 L 1365.33 1365.33 L 0.00 1365.33 Z" fill="#000000" fill-rule="nonzero" node-id="101" stroke="none" target-height="1365.33" target-width="1365.33" target-x="0" target-y="0"></path></clipPath></defs><g clip-path="url(#clip0_1_220)" id="sillyvg_g_0" node-id="105"><path d="M 0.00 0.00 L 1365.33 0.00 L 1365.33 1065.41 C 1342.09 1064.67 1318.87 1065.57 1295.63 1065.47 C 1296.61 1059.03 1297.24 1052.55 1297.97 1046.08 C 1286.89 1053.15 1275.71 1060.13 1263.80 1065.73 C 1261.68 1052.15 1258.95 1038.68 1256.21 1025.21 C 1249.60 1038.32 1243.43 1051.63 1237.29 1064.96 C 1231.33 1065.04 1225.36 1065.00 1219.41 1064.99 C 1218.01 1038.40 1217.15 1011.79 1215.04 985.25 C 1205.35 1009.37 1196.43 1033.80 1188.07 1058.41 C 1185.32 1035.40 1181.33 1012.53 1177.85 989.63 C 1167.21 1014.75 1157.05 1040.08 1146.32 1065.16 C 1128.49 1065.16 1110.68 1065.05 1092.85 1065.09 C 1091.97 1057.43 1090.44 1049.87 1089.37 1042.24 C 1085.19 1049.43 1081.89 1057.09 1079.17 1064.95 C 1075.12 1065.00 1071.09 1065.05 1067.07 1065.11 C 1068.15 1046.69 1070.29 1028.36 1071.28 1009.93 C 1060.16 1025.96 1049.56 1042.35 1038.99 1058.73 C 1035.88 1044.24 1031.17 1030.17 1027.60 1015.80 C 1024.31 1032.17 1025.20 1048.96 1023.17 1065.47 C 1010.16 1051.43 997.95 1036.68 984.96 1022.60 C 986.64 1037.11 990.28 1051.31 991.60 1065.87 C 987.69 1062.64 984.15 1059.03 980.45 1055.60 C 979.73 1058.93 979.08 1062.27 978.40 1065.63 C 968.32 1054.05 958.87 1041.95 948.77 1030.37 C 949.25 1041.96 950.29 1053.52 950.55 1065.13 C 924.56 1065.55 898.52 1064.83 872.51 1065.17 C 871.16 1055.40 869.92 1045.63 868.25 1035.92 C 864.61 1045.67 860.53 1055.25 856.89 1065.00 C 851.37 1065.07 845.85 1065.07 840.33 1065.08 C 839.96 1055.44 839.59 1045.81 839.11 1036.19 C 833.63 1045.63 828.41 1055.23 823.60 1065.03 C 819.03 1065.09 814.45 1065.13 809.88 1065.12 C 804.84 1052.17 799.52 1039.33 794.33 1026.44 C 793.13 1039.31 792.60 1052.20 792.19 1065.11 C 785.48 1065.63 778.75 1065.53 772.04 1065.23 C 760.99 1065.04 749.92 1065.28 738.87 1065.03 C 733.60 1054.84 729.31 1044.09 722.64 1034.69 C 720.08 1031.31 719.00 1027.15 718.41 1023.01 C 715.89 1006.97 712.56 991.05 710.69 974.91 C 764.45 976.85 818.99 962.75 864.41 933.73 C 897.77 912.77 925.81 883.71 946.04 849.92 C 985.16 860.81 1024.13 872.25 1063.20 883.35 C 1069.00 884.96 1075.84 886.13 1081.12 882.41 C 1088.68 878.00 1091.72 869.44 1095.40 862.01 C 1106.84 841.32 1117.85 820.39 1129.17 799.61 C 1132.48 793.81 1134.63 786.97 1140.15 782.79 C 1149.24 775.57 1156.53 765.89 1160.52 754.96 C 1163.25 747.08 1163.08 736.40 1155.48 731.28 C 1148.55 726.43 1139.53 730.12 1133.77 735.07 C 1136.25 727.84 1133.83 719.43 1127.20 715.35 C 1118.61 709.68 1107.56 714.43 1100.71 720.69 C 1100.80 716.93 1101.05 712.69 1098.13 709.84 C 1090.60 700.65 1075.17 701.52 1067.79 710.44 C 1061.97 716.52 1061.73 725.36 1061.73 733.27 C 1060.04 765.80 1058.29 798.33 1056.24 830.84 C 1025.83 822.83 995.71 813.73 965.56 804.80 C 971.92 783.27 976.65 761.19 978.21 738.76 C 979.61 724.72 979.59 710.60 979.91 696.51 C 982.41 693.35 984.43 689.85 986.27 686.28 C 991.89 675.45 1000.09 665.60 1010.95 659.73 C 1011.63 659.36 1012.99 658.63 1013.67 658.25 C 1015.11 662.91 1015.63 668.07 1018.48 672.16 C 1023.81 677.71 1034.73 675.21 1037.21 667.89 C 1038.92 662.96 1037.71 657.63 1036.32 652.76 C 1041.52 653.47 1046.73 654.13 1051.89 655.17 C 1060.63 658.21 1069.00 662.32 1076.52 667.76 C 1077.53 647.64 1081.99 626.77 1094.72 610.64 C 1104.77 597.52 1120.77 588.93 1137.40 588.72 C 1149.59 588.27 1161.57 591.64 1172.39 597.09 C 1170.60 581.69 1168.63 566.24 1168.68 550.72 C 1168.81 538.60 1170.55 526.09 1176.75 515.47 C 1184.08 502.32 1198.27 493.29 1213.32 492.41 C 1227.72 491.63 1242.05 493.97 1256.15 496.72 C 1249.79 477.15 1238.49 459.57 1225.73 443.57 C 1199.01 411.07 1165.55 383.61 1126.89 366.53 C 1094.52 352.17 1058.99 345.55 1023.65 345.68 C 1031.47 374.39 1036.19 404.60 1032.33 434.32 C 1029.60 455.27 1018.48 474.32 1003.53 488.95 C 987.81 505.21 967.51 516.31 946.21 523.47 C 939.93 498.44 932.32 473.76 924.00 449.33 C 915.01 423.51 904.93 397.88 891.11 374.21 C 877.97 352.11 862.16 331.28 842.41 314.65 C 847.33 294.76 852.37 274.88 858.25 255.24 C 868.21 253.51 878.09 251.33 887.99 249.25 C 879.15 233.27 870.03 217.43 860.59 201.80 C 856.00 206.63 851.41 211.45 846.75 216.20 C 846.93 208.56 847.08 200.91 847.11 193.25 C 830.79 199.45 814.29 205.25 798.04 211.63 C 803.95 220.00 810.00 228.28 816.01 236.59 C 809.76 249.56 803.03 262.27 796.57 275.13 C 794.81 278.56 793.13 282.07 790.71 285.08 C 788.67 284.75 786.72 284.07 784.79 283.39 C 754.69 272.05 722.56 266.67 690.47 265.97 C 697.24 251.40 702.19 236.00 705.25 220.23 C 706.12 215.72 706.36 211.11 706.20 206.51 C 696.15 209.25 688.92 217.37 682.07 224.73 C 671.79 237.09 663.39 251.37 659.04 266.91 C 657.85 266.84 656.68 266.76 655.51 266.69 C 644.83 249.92 629.85 235.73 612.40 226.16 C 607.03 223.52 601.27 220.08 595.05 221.56 C 600.45 240.56 611.24 257.53 622.64 273.47 C 601.57 278.92 580.91 286.20 561.44 295.99 C 552.35 300.53 543.72 305.93 534.93 311.04 C 525.12 300.11 516.13 288.47 506.33 277.53 C 504.00 274.83 500.93 271.85 502.40 267.93 C 504.99 259.88 507.43 251.80 509.47 243.59 C 492.05 241.60 474.63 239.87 457.20 238.11 C 458.88 245.67 460.61 253.23 462.11 260.83 C 455.56 259.11 449.03 257.31 442.41 255.85 C 440.75 272.99 438.64 290.08 437.37 307.25 C 446.52 304.79 455.61 302.15 464.67 299.39 C 473.71 317.77 482.59 336.24 491.55 354.67 C 470.68 385.61 457.20 421.11 449.11 457.40 C 440.51 496.68 438.52 537.08 439.49 577.17 C 411.03 574.69 381.72 568.12 358.23 551.07 C 340.84 538.41 330.13 518.61 324.75 498.13 C 318.53 475.97 316.97 452.85 316.47 429.93 C 282.52 440.95 250.16 457.31 222.04 479.36 C 194.72 500.73 172.75 528.40 155.91 558.59 C 141.00 585.71 129.85 615.81 129.43 647.07 C 143.87 637.80 158.64 627.64 175.97 624.97 C 188.85 622.87 202.89 626.45 212.25 635.79 C 220.43 643.19 225.29 653.40 228.52 663.77 C 233.45 679.29 235.97 695.49 237.27 711.69 C 248.55 702.64 261.37 694.71 275.93 692.59 C 286.81 690.76 298.15 691.83 308.47 695.73 C 308.53 703.29 316.96 706.45 323.40 706.28 C 326.16 708.99 328.76 711.84 331.35 714.72 C 327.12 722.36 332.01 731.92 340.09 734.21 C 341.61 742.36 343.35 750.48 345.21 758.56 C 350.76 746.80 357.80 735.76 366.75 726.29 C 368.13 730.69 370.29 735.31 374.59 737.55 C 380.01 740.84 388.31 739.23 391.29 733.39 C 391.85 726.97 389.63 720.75 388.83 714.45 C 406.29 713.03 424.79 716.81 438.72 727.88 C 445.39 732.76 450.25 739.49 456.00 745.32 C 462.93 769.75 468.20 794.73 477.55 818.44 C 491.21 855.11 513.68 888.37 542.33 915.01 C 529.40 928.75 510.91 937.11 492.00 937.19 C 477.53 937.57 461.97 934.97 450.65 925.29 C 442.09 918.25 437.52 906.99 438.16 895.99 C 438.51 885.36 442.63 875.44 446.48 865.71 C 432.19 868.97 419.71 877.29 408.81 886.84 C 404.87 880.92 400.71 875.11 395.55 870.19 C 390.48 889.95 398.03 909.95 406.41 927.63 C 399.25 927.29 392.12 926.79 384.97 926.27 C 389.76 940.08 401.47 950.84 415.12 955.61 C 421.57 957.87 428.57 957.16 435.09 955.57 C 430.43 961.51 425.43 967.17 419.96 972.40 C 436.76 979.48 456.41 978.45 472.76 970.60 C 469.03 977.19 464.05 982.91 458.69 988.21 C 475.92 992.67 494.29 989.96 510.79 983.92 C 534.71 975.08 555.32 957.16 566.80 934.32 C 587.43 948.52 610.41 959.27 634.77 965.25 C 643.33 967.79 652.33 968.52 660.88 971.08 C 661.88 973.04 662.35 975.20 662.92 977.32 C 667.37 995.96 671.12 1014.76 676.01 1033.29 C 676.99 1036.16 676.37 1039.17 675.29 1041.92 C 672.41 1049.71 669.72 1057.56 667.31 1065.51 C 616.11 1065.15 564.92 1065.11 513.72 1065.13 C 513.71 1046.96 513.96 1028.79 513.99 1010.61 C 505.19 1023.87 496.87 1037.45 487.83 1050.55 C 484.13 1055.93 481.05 1061.93 475.73 1065.96 C 472.03 1049.99 467.99 1034.09 464.05 1018.19 C 459.96 1033.80 455.93 1049.44 451.87 1065.08 C 439.08 1065.13 426.28 1064.97 413.49 1064.96 C 414.92 1046.00 417.49 1027.15 418.49 1008.15 C 405.65 1026.16 393.57 1044.71 381.32 1063.12 C 379.08 1048.33 375.96 1033.72 373.15 1019.05 C 368.76 1032.24 365.75 1045.83 361.81 1059.15 C 356.47 1045.83 350.24 1032.89 344.72 1019.67 C 342.79 1034.76 343.00 1050.03 341.87 1065.20 C 341.29 1065.09 340.12 1064.88 339.55 1064.77 C 327.41 1050.20 314.95 1035.92 302.68 1021.49 C 304.01 1036.51 308.59 1051.09 309.11 1066.21 C 305.44 1063.91 302.21 1061.00 298.80 1058.36 C 297.57 1060.81 296.35 1063.28 295.07 1065.73 C 289.01 1054.32 282.63 1043.12 275.61 1032.28 C 274.53 1043.25 273.23 1054.20 271.63 1065.12 C 234.39 1065.21 197.13 1065.17 159.89 1065.09 C 165.51 1040.16 172.43 1015.55 178.71 990.77 C 161.27 1009.29 144.91 1028.84 126.76 1046.68 C 118.75 1027.79 111.39 1008.63 103.60 989.64 C 101.76 1014.76 100.17 1039.92 100.07 1065.12 C 99.67 1064.97 98.89 1064.69 98.51 1064.55 C 91.77 1051.25 85.29 1037.84 78.24 1024.72 C 76.65 1038.16 75.37 1051.64 73.77 1065.08 C 49.19 1066.01 24.57 1064.99 0.00 1065.79 L 0.00 0.00 Z M 1284.49 64.73 C 1276.28 67.51 1276.63 80.32 1284.51 83.31 C 1291.60 87.35 1301.05 79.63 1298.65 71.89 C 1297.29 65.85 1290.21 61.99 1284.49 64.73 Z M 105.48 64.85 C 105.20 70.64 104.25 76.35 103.03 81.99 C 96.39 83.27 89.72 84.35 83.04 85.37 C 89.68 86.55 96.37 87.41 103.03 88.51 C 104.03 94.44 104.97 100.40 105.39 106.43 C 106.45 100.41 107.73 94.45 108.84 88.45 C 114.88 87.44 120.97 86.61 126.96 85.25 C 120.96 83.91 114.81 83.29 108.76 82.27 C 107.33 76.53 106.15 70.73 105.48 64.85 Z M 829.41 96.25 C 829.15 101.16 828.52 106.04 827.44 110.84 C 822.17 111.75 816.93 112.80 811.63 113.39 C 816.85 114.31 822.09 115.25 827.39 115.81 C 828.52 121.32 829.15 126.91 829.35 132.53 C 830.09 126.88 831.35 121.32 832.64 115.77 C 837.31 115.15 841.93 114.29 846.59 113.56 L 847.45 115.33 C 847.37 114.51 847.55 113.45 846.59 113.09 C 841.92 112.19 837.20 111.67 832.49 111.05 C 831.23 106.17 830.20 101.23 829.41 96.25 Z M 1041.71 117.84 C 1015.41 119.20 988.89 131.84 974.33 154.31 C 963.71 169.89 959.83 190.88 967.57 208.51 C 973.27 221.56 985.15 230.60 997.57 236.80 C 1016.33 245.99 1036.89 250.59 1057.25 254.65 C 1091.09 261.29 1125.52 264.69 1159.97 265.64 C 1185.89 265.49 1212.40 263.32 1236.75 253.81 C 1250.32 248.52 1264.05 239.04 1268.07 224.24 C 1274.39 194.25 1253.44 162.64 1224.39 154.39 C 1201.96 147.97 1178.12 151.56 1155.93 157.27 C 1147.08 159.49 1137.89 162.29 1128.71 160.35 C 1119.29 157.57 1113.60 148.97 1106.72 142.61 C 1089.72 125.92 1065.64 116.09 1041.71 117.84 Z M 615.15 119.25 C 606.55 119.40 600.07 130.04 605.28 137.39 C 609.24 145.09 621.55 145.64 625.83 137.96 C 631.19 130.20 624.51 118.55 615.15 119.25 Z M 201.92 162.13 C 182.16 169.57 163.13 179.80 147.47 194.11 C 135.39 205.40 125.23 220.35 124.37 237.32 C 124.09 239.13 124.88 240.41 126.73 241.17 C 127.31 234.15 128.41 227.05 131.41 220.61 C 138.61 204.56 152.23 192.40 166.72 182.95 C 200.12 161.39 239.84 152.40 278.85 147.92 C 318.88 143.93 359.80 145.00 398.89 155.09 C 416.80 159.72 434.57 165.68 450.53 175.20 C 459.11 180.37 467.19 186.75 473.05 194.92 C 475.12 197.57 476.20 201.32 479.77 202.40 C 478.25 196.09 474.12 190.88 469.76 186.27 C 461.11 177.63 450.56 171.11 439.52 165.99 C 394.69 145.92 344.63 140.65 296.00 143.39 C 264.07 145.68 232.03 150.87 201.92 162.13 Z M 971.12 283.29 C 966.32 284.65 963.19 290.92 966.23 295.28 C 968.88 300.93 978.07 301.13 980.65 295.31 C 984.48 289.35 977.80 281.00 971.12 283.29 Z M 1275.17 334.09 C 1268.75 336.39 1269.61 347.21 1276.11 348.83 C 1280.96 350.45 1286.69 346.56 1286.49 341.35 C 1286.68 335.73 1280.13 332.05 1275.17 334.09 Z M 328.39 343.27 C 322.37 345.03 321.77 353.88 326.64 357.32 C 331.13 361.39 339.41 358.12 339.63 352.00 C 340.39 346.05 333.99 341.12 328.39 343.27 Z M 128.59 406.91 C 122.27 407.97 115.95 409.05 109.53 409.44 C 115.84 410.76 122.21 411.69 128.60 412.45 C 129.80 418.85 130.88 425.27 131.88 431.71 C 132.29 425.32 133.59 419.07 134.59 412.76 C 140.93 411.65 147.28 410.57 153.60 409.33 C 147.40 408.52 141.20 407.69 134.97 407.11 C 133.09 401.13 132.16 394.92 131.92 388.67 C 131.04 394.79 129.91 400.87 128.59 406.91 Z M 1245.88 604.79 C 1239.95 607.36 1239.96 616.84 1245.59 619.76 C 1251.00 623.21 1258.61 618.19 1257.97 611.92 C 1257.79 606.11 1251.05 602.35 1245.88 604.79 Z M 1249.39 679.28 C 1248.93 685.07 1248.00 690.80 1246.87 696.49 C 1240.48 697.64 1234.05 698.52 1227.72 699.92 C 1233.88 700.75 1240.04 701.72 1246.25 702.17 C 1248.13 708.13 1249.03 714.37 1249.07 720.63 C 1249.79 720.68 1250.52 720.67 1251.28 720.59 L 1249.39 719.96 C 1250.25 714.08 1251.31 708.23 1252.75 702.45 C 1258.96 701.60 1265.13 700.37 1271.40 699.88 C 1265.16 698.55 1258.84 697.71 1252.55 696.77 C 1250.93 691.05 1250.04 685.17 1249.39 679.28 Z M 115.13 700.75 C 107.47 702.43 106.04 713.17 111.48 718.03 C 116.65 723.44 127.04 720.72 128.57 713.28 C 130.93 705.57 122.56 698.16 115.13 700.75 Z M 154.29 769.23 C 125.44 774.89 104.29 805.80 109.79 834.73 C 111.35 844.76 117.68 853.88 126.59 858.79 C 139.23 865.72 153.93 867.35 168.07 868.56 C 197.29 869.84 226.79 869.07 255.63 863.77 C 272.37 860.33 290.32 855.32 302.04 842.04 C 309.33 834.11 312.28 822.48 309.15 812.11 C 305.51 799.49 294.91 789.65 282.72 785.32 C 274.20 782.20 264.96 782.64 256.08 783.31 C 244.72 784.33 234.09 789.31 222.72 790.15 C 213.48 791.03 206.76 783.64 199.39 779.40 C 186.29 770.55 170.01 765.81 154.29 769.23 Z M 1202.61 892.85 C 1202.00 897.68 1201.00 902.45 1200.13 907.25 C 1194.89 908.41 1189.64 909.45 1184.40 910.60 C 1189.47 911.25 1194.75 911.01 1199.67 912.49 C 1201.51 917.68 1201.80 923.28 1202.57 928.72 C 1202.97 923.36 1203.79 918.07 1204.76 912.80 C 1209.63 911.59 1214.52 910.59 1219.40 909.44 C 1214.52 908.87 1209.65 908.28 1204.83 907.47 C 1203.72 902.64 1203.00 897.76 1202.61 892.85 Z M 312.43 924.48 C 304.36 926.84 301.79 938.39 307.84 944.12 C 313.44 950.51 325.44 948.15 327.96 939.92 C 331.45 930.97 321.43 920.65 312.43 924.48 Z M 1001.57 933.53 C 993.51 934.91 989.84 945.37 995.07 951.57 C 999.96 959.23 1012.96 957.93 1016.00 949.29 C 1019.79 940.61 1010.37 930.79 1001.57 933.53 Z M 567.29 1006.43 C 562.76 1008.15 557.91 1008.67 553.16 1009.41 C 557.80 1010.28 562.45 1011.21 567.16 1011.76 C 568.21 1016.91 569.15 1022.12 569.39 1027.39 C 570.09 1022.07 571.20 1016.81 572.44 1011.61 C 577.71 1010.93 582.95 1010.01 588.23 1009.28 C 583.03 1008.39 577.83 1007.64 572.60 1007.09 C 571.03 1002.41 569.97 997.57 569.36 992.68 C 568.96 997.29 568.69 1001.97 567.29 1006.43 Z" fill="#fdfdfe" fill-rule="nonzero" node-id="107" stroke="none" target-height="1066.21" target-width="1365.33" target-x="0" target-y="0"></path><path d="M 1038.07 121.15 C 1062.37 118.16 1087.11 128.12 1104.51 144.96 C 1111.35 151.35 1117.11 159.65 1126.27 162.93 C 1135.17 166.16 1144.63 163.29 1153.44 161.21 C 1175.37 155.35 1198.83 151.08 1221.27 156.81 C 1242.04 161.93 1258.88 179.39 1264.09 200.03 C 1266.64 210.23 1267.32 221.83 1261.69 231.16 C 1255.24 242.03 1243.36 248.04 1231.91 252.25 C 1201.31 263.08 1168.31 263.11 1136.31 261.48 C 1108.09 259.79 1079.99 256.28 1052.32 250.51 C 1034.48 246.83 1016.57 242.45 1000.07 234.55 C 989.47 229.41 979.29 222.29 973.15 212.00 C 964.11 196.76 965.40 176.91 973.59 161.57 C 985.99 137.81 1011.97 123.76 1038.07 121.15 Z" fill="#fdfdfe" fill-rule="nonzero" node-id="109" stroke="none" target-height="144.94699" target-width="303.21295" target-x="964.107" target-y="118.16"></path><path d="M 712.92 491.61 C 724.32 490.08 735.71 488.39 747.08 486.61 C 746.41 501.53 742.95 516.81 734.04 529.08 C 727.56 516.28 720.69 503.67 712.92 491.61 Z" fill="#fdfdfe" fill-rule="nonzero" node-id="111" stroke="none" target-height="42.46701" target-width="34.160034" target-x="712.92" target-y="486.613"></path><path d="M 597.81 498.25 C 609.97 499.57 622.23 499.25 634.44 499.27 C 626.99 512.97 623.28 528.25 620.88 543.55 C 607.77 532.01 601.24 514.97 597.81 498.25 Z" fill="#fdfdfe" fill-rule="nonzero" node-id="113" stroke="none" target-height="45.294006" target-width="36.627014" target-x="597.813" target-y="498.253"></path><path d="M 1284.49 64.73 C 1290.21 61.99 1297.29 65.85 1298.65 71.89 C 1301.05 79.63 1291.60 87.35 1284.51 83.31 C 1276.63 80.32 1276.28 67.51 1284.49 64.73 Z" fill="#8f638b" fill-rule="nonzero" node-id="115" stroke="none" target-height="25.36" target-width="24.77002" target-x="1276.28" target-y="61.9868"></path><path d="M 105.48 64.85 C 106.15 70.73 107.33 76.53 108.76 82.27 C 114.81 83.29 120.96 83.91 126.96 85.25 C 120.97 86.61 114.88 87.44 108.84 88.45 C 107.73 94.45 106.45 100.41 105.39 106.43 C 104.97 100.40 104.03 94.44 103.03 88.51 C 96.37 87.41 89.68 86.55 83.04 85.37 C 89.72 84.35 96.39 83.27 103.03 81.99 C 104.25 76.35 105.20 70.64 105.48 64.85 Z" fill="#4e4b4c" fill-rule="nonzero" node-id="117" stroke="none" target-height="41.5737" target-width="43.92" target-x="83.04" target-y="64.8533"></path><path d="M 829.41 96.25 C 830.20 101.23 831.23 106.17 832.49 111.05 C 837.20 111.67 841.92 112.19 846.59 113.09 C 847.55 113.45 847.37 114.51 847.45 115.33 L 846.59 113.56 C 841.93 114.29 837.31 115.15 832.64 115.77 C 831.35 121.32 830.09 126.88 829.35 132.53 C 829.15 126.91 828.52 121.32 827.39 115.81 C 822.09 115.25 816.85 114.31 811.63 113.39 C 816.93 112.80 822.17 111.75 827.44 110.84 C 828.52 106.04 829.15 101.16 829.41 96.25 Z" fill="#4a4649" fill-rule="nonzero" node-id="119" stroke="none" target-height="36.279602" target-width="35.919983" target-x="811.627" target-y="96.2534"></path><path d="M 1041.71 117.84 C 1065.64 116.09 1089.72 125.92 1106.72 142.61 C 1113.60 148.97 1119.29 157.57 1128.71 160.35 C 1137.89 162.29 1147.08 159.49 1155.93 157.27 C 1178.12 151.56 1201.96 147.97 1224.39 154.39 C 1253.44 162.64 1274.39 194.25 1268.07 224.24 C 1264.05 239.04 1250.32 248.52 1236.75 253.81 C 1212.40 263.32 1185.89 265.49 1159.97 265.64 C 1125.52 264.69 1091.09 261.29 1057.25 254.65 C 1036.89 250.59 1016.33 245.99 997.57 236.80 C 985.15 230.60 973.27 221.56 967.57 208.51 C 959.83 190.88 963.71 169.89 974.33 154.31 C 988.89 131.84 1015.41 119.20 1041.71 117.84 Z M 1038.07 121.15 C 1011.97 123.76 985.99 137.81 973.59 161.57 C 965.40 176.91 964.11 196.76 973.15 212.00 C 979.29 222.29 989.47 229.41 1000.07 234.55 C 1016.57 242.45 1034.48 246.83 1052.32 250.51 C 1079.99 256.28 1108.09 259.79 1136.31 261.48 C 1168.31 263.11 1201.31 263.08 1231.91 252.25 C 1243.36 248.04 1255.24 242.03 1261.69 231.16 C 1267.32 221.83 1266.64 210.23 1264.09 200.03 C 1258.88 179.39 1242.04 161.93 1221.27 156.81 C 1198.83 151.08 1175.37 155.35 1153.44 161.21 C 1144.63 163.29 1135.17 166.16 1126.27 162.93 C 1117.11 159.65 1111.35 151.35 1104.51 144.96 C 1087.11 128.12 1062.37 118.16 1038.07 121.15 Z" fill="#353536" fill-rule="nonzero" node-id="121" stroke="none" target-height="149.54701" target-width="314.563" target-x="959.827" target-y="116.093"></path><path d="M 615.15 119.25 C 624.51 118.55 631.19 130.20 625.83 137.96 C 621.55 145.64 609.24 145.09 605.28 137.39 C 600.07 130.04 606.55 119.40 615.15 119.25 Z" fill="#f7a7b6" fill-rule="nonzero" node-id="123" stroke="none" target-height="27.093002" target-width="31.119995" target-x="600.067" target-y="118.547"></path><path d="M 201.92 162.13 C 232.03 150.87 264.07 145.68 296.00 143.39 C 344.63 140.65 394.69 145.92 439.52 165.99 C 450.56 171.11 461.11 177.63 469.76 186.27 C 474.12 190.88 478.25 196.09 479.77 202.40 C 476.20 201.32 475.12 197.57 473.05 194.92 C 467.19 186.75 459.11 180.37 450.53 175.20 C 434.57 165.68 416.80 159.72 398.89 155.09 C 359.80 145.00 318.88 143.93 278.85 147.92 C 239.84 152.40 200.12 161.39 166.72 182.95 C 152.23 192.40 138.61 204.56 131.41 220.61 C 128.41 227.05 127.31 234.15 126.73 241.17 C 124.88 240.41 124.09 239.13 124.37 237.32 C 125.23 220.35 135.39 205.40 147.47 194.11 C 163.13 179.80 182.16 169.57 201.92 162.13 Z" fill="#353236" fill-rule="nonzero" node-id="125" stroke="none" target-height="100.520004" target-width="355.68" target-x="124.093" target-y="140.653"></path><path d="M 798.04 211.63 C 814.29 205.25 830.79 199.45 847.11 193.25 C 847.08 200.91 846.93 208.56 846.75 216.20 C 851.41 211.45 856.00 206.63 860.59 201.80 C 870.03 217.43 879.15 233.27 887.99 249.25 C 878.09 251.33 868.21 253.51 858.25 255.24 C 849.33 257.03 839.61 257.20 831.49 252.57 C 824.56 249.27 820.09 242.81 816.01 236.59 C 810.00 228.28 803.95 220.00 798.04 211.63 Z" fill="#4f4c4a" fill-rule="nonzero" node-id="127" stroke="none" target-height="63.947006" target-width="89.94702" target-x="798.04" target-y="193.253"></path><path d="M 682.07 224.73 C 688.92 217.37 696.15 209.25 706.20 206.51 C 706.36 211.11 706.12 215.72 705.25 220.23 C 702.19 236.00 697.24 251.40 690.47 265.97 C 675.87 265.36 661.37 267.39 646.89 268.87 C 638.72 269.95 630.64 271.52 622.64 273.47 C 611.24 257.53 600.45 240.56 595.05 221.56 C 601.27 220.08 607.03 223.52 612.40 226.16 C 629.85 235.73 644.83 249.92 655.51 266.69 C 656.68 266.76 657.85 266.84 659.04 266.91 C 663.39 251.37 671.79 237.09 682.07 224.73 Z" fill="#4f4c4a" fill-rule="nonzero" node-id="129" stroke="none" target-height="66.96001" target-width="111.30701" target-x="595.053" target-y="206.507"></path><path d="M 784.56 478.79 C 787.44 477.77 790.32 476.76 793.21 475.77 C 803.45 485.20 810.28 497.37 817.21 509.24 C 819.12 503.24 820.68 497.12 821.47 490.87 C 821.96 496.56 821.93 502.32 820.77 507.95 C 817.56 525.13 811.44 541.92 801.93 556.65 C 772.55 549.72 742.03 548.12 711.99 550.67 C 675.69 553.80 640.56 565.28 607.91 581.13 C 605.19 582.03 601.85 584.67 599.29 582.13 C 577.35 566.17 560.51 542.47 554.53 515.84 C 557.68 524.41 562.77 532.08 568.15 539.40 C 573.99 525.07 580.97 511.20 589.68 498.37 C 592.36 497.83 595.11 498.16 597.81 498.25 C 601.24 514.97 607.77 532.01 620.88 543.55 C 623.28 528.25 626.99 512.97 634.44 499.27 C 638.13 498.95 641.83 498.64 645.55 498.44 C 651.24 510.99 658.48 523.16 669.51 531.76 C 671.92 519.69 675.64 507.95 678.55 496.00 C 689.95 494.12 701.55 493.68 712.92 491.61 C 720.69 503.67 727.56 516.28 734.04 529.08 C 742.95 516.81 746.41 501.53 747.08 486.61 C 749.32 486.16 751.59 485.75 753.84 485.33 C 765.45 497.23 773.52 512.04 779.29 527.52 C 788.99 513.36 787.67 494.84 784.56 478.79 Z" fill="#4f4c4a" fill-rule="nonzero" node-id="131" stroke="none" target-height="108.89398" target-width="267.427" target-x="554.533" target-y="475.773"></path><path d="M 388.83 714.45 C 387.55 703.21 387.57 691.44 391.76 680.77 C 397.65 681.89 403.59 682.61 409.53 683.37 C 421.71 685.07 433.88 686.81 446.00 688.91 C 449.00 707.76 451.33 726.79 456.00 745.32 C 450.25 739.49 445.39 732.76 438.72 727.88 C 424.79 716.81 406.29 713.03 388.83 714.45 Z" fill="#4f4c4a" fill-rule="nonzero" node-id="133" stroke="none" target-height="64.547" target-width="68.453" target-x="387.547" target-y="680.773"></path><path d="M 816.01 236.59 C 820.09 242.81 824.56 249.27 831.49 252.57 C 839.61 257.20 849.33 257.03 858.25 255.24 C 852.37 274.88 847.33 294.76 842.41 314.65 C 862.16 331.28 877.97 352.11 891.11 374.21 C 904.93 397.88 915.01 423.51 924.00 449.33 C 932.32 473.76 939.93 498.44 946.21 523.47 C 947.41 528.35 948.64 533.21 949.84 538.09 C 952.84 550.15 955.72 562.24 958.49 574.36 C 961.77 575.01 965.08 575.67 968.37 576.35 C 967.01 584.29 969.84 592.03 970.85 599.83 C 971.89 607.16 973.68 614.51 972.77 621.96 C 972.53 625.77 972.85 629.59 973.52 633.35 C 976.97 654.24 979.00 675.35 979.91 696.51 C 979.59 710.60 979.61 724.72 978.21 738.76 C 976.65 761.19 971.92 783.27 965.56 804.80 C 995.71 813.73 1025.83 822.83 1056.24 830.84 C 1058.29 798.33 1060.04 765.80 1061.73 733.27 C 1061.73 725.36 1061.97 716.52 1067.79 710.44 C 1075.17 701.52 1090.60 700.65 1098.13 709.84 C 1101.05 712.69 1100.80 716.93 1100.71 720.69 C 1107.56 714.43 1118.61 709.68 1127.20 715.35 C 1133.83 719.43 1136.25 727.84 1133.77 735.07 C 1139.53 730.12 1148.55 726.43 1155.48 731.28 C 1163.08 736.40 1163.25 747.08 1160.52 754.96 C 1156.53 765.89 1149.24 775.57 1140.15 782.79 C 1134.63 786.97 1132.48 793.81 1129.17 799.61 C 1117.85 820.39 1106.84 841.32 1095.40 862.01 C 1091.72 869.44 1088.68 878.00 1081.12 882.41 C 1075.84 886.13 1069.00 884.96 1063.20 883.35 C 1024.13 872.25 985.16 860.81 946.04 849.92 C 925.81 883.71 897.77 912.77 864.41 933.73 C 818.99 962.75 764.45 976.85 710.69 974.91 C 712.56 991.05 715.89 1006.97 718.41 1023.01 C 719.00 1027.15 720.08 1031.31 722.64 1034.69 C 729.31 1044.09 733.60 1054.84 738.87 1065.03 C 743.08 1074.25 748.85 1082.65 753.44 1091.68 C 759.76 1104.13 749.85 1120.80 735.97 1121.45 C 728.92 1122.12 723.15 1116.89 720.61 1110.72 C 721.11 1116.31 722.01 1122.32 719.63 1127.61 C 715.17 1136.32 702.77 1141.05 694.43 1134.88 C 689.16 1131.56 687.47 1125.28 686.61 1119.52 C 686.11 1122.97 686.13 1126.69 684.39 1129.83 C 679.52 1136.95 668.77 1139.33 661.49 1134.53 C 653.72 1129.72 649.67 1119.67 652.44 1110.87 C 656.89 1095.59 662.73 1080.75 667.31 1065.51 C 669.72 1057.56 672.41 1049.71 675.29 1041.92 C 676.37 1039.17 676.99 1036.16 676.01 1033.29 C 671.12 1014.76 667.37 995.96 662.92 977.32 C 662.35 975.20 661.88 973.04 660.88 971.08 C 652.33 968.52 643.33 967.79 634.77 965.25 C 610.41 959.27 587.43 948.52 566.80 934.32 C 555.32 957.16 534.71 975.08 510.79 983.92 C 494.29 989.96 475.92 992.67 458.69 988.21 C 464.05 982.91 469.03 977.19 472.76 970.60 C 456.41 978.45 436.76 979.48 419.96 972.40 C 425.43 967.17 430.43 961.51 435.09 955.57 C 428.57 957.16 421.57 957.87 415.12 955.61 C 401.47 950.84 389.76 940.08 384.97 926.27 C 392.12 926.79 399.25 927.29 406.41 927.63 C 398.03 909.95 390.48 889.95 395.55 870.19 C 400.71 875.11 404.87 880.92 408.81 886.84 C 419.71 877.29 432.19 868.97 446.48 865.71 C 442.63 875.44 438.51 885.36 438.16 895.99 C 437.52 906.99 442.09 918.25 450.65 925.29 C 461.97 934.97 477.53 937.57 492.00 937.19 C 510.91 937.11 529.40 928.75 542.33 915.01 C 513.68 888.37 491.21 855.11 477.55 818.44 C 468.20 794.73 462.93 769.75 456.00 745.32 C 451.33 726.79 449.00 707.76 446.00 688.91 C 433.88 686.81 421.71 685.07 409.53 683.37 C 411.63 670.61 406.17 657.93 409.27 645.28 C 411.08 639.84 407.04 634.71 408.52 629.27 C 412.47 627.17 416.45 625.17 420.41 623.11 C 427.20 619.24 434.55 616.17 440.76 611.39 C 441.55 604.20 440.13 597.00 440.01 589.80 C 439.81 585.59 439.63 581.37 439.49 577.17 C 438.52 537.08 440.51 496.68 449.11 457.40 C 457.20 421.11 470.68 385.61 491.55 354.67 C 482.59 336.24 473.71 317.77 464.67 299.39 C 473.32 296.95 482.87 296.01 490.04 290.07 C 497.05 284.72 500.01 276.07 502.40 267.93 C 500.93 271.85 504.00 274.83 506.33 277.53 C 516.13 288.47 525.12 300.11 534.93 311.04 C 543.72 305.93 552.35 300.53 561.44 295.99 C 580.91 286.20 601.57 278.92 622.64 273.47 C 630.64 271.52 638.72 269.95 646.89 268.87 C 661.37 267.39 675.87 265.36 690.47 265.97 C 722.56 266.67 754.69 272.05 784.79 283.39 C 786.72 284.07 788.67 284.75 790.71 285.08 C 793.13 282.07 794.81 278.56 796.57 275.13 C 803.03 262.27 809.76 249.56 816.01 236.59 Z M 759.41 320.49 C 761.21 325.37 762.49 331.35 767.59 333.87 C 768.39 327.95 768.68 321.96 768.27 316.01 C 767.64 306.97 767.21 297.56 762.80 289.41 C 758.17 298.93 755.91 310.24 759.41 320.49 Z M 735.69 299.81 C 732.27 309.32 735.19 319.59 739.32 328.37 C 746.25 317.68 745.83 303.35 740.59 292.03 C 737.56 293.35 736.85 297.05 735.69 299.81 Z M 590.87 320.05 C 589.32 331.41 593.69 342.85 600.35 351.92 C 602.49 336.15 598.45 320.51 595.37 305.15 C 593.23 309.88 591.39 314.84 590.87 320.05 Z M 568.64 306.69 C 565.68 312.89 563.44 319.99 564.99 326.88 C 566.75 333.41 569.67 339.83 574.57 344.63 C 577.15 334.57 573.93 324.45 571.96 314.63 C 571.24 311.87 570.84 308.75 568.64 306.69 Z M 763.47 341.09 C 747.41 345.28 733.83 358.59 729.99 374.83 C 727.32 386.00 727.85 398.16 732.60 408.72 C 737.99 421.27 749.09 431.35 762.33 434.96 C 781.87 440.32 804.21 432.24 815.65 415.47 C 823.95 403.84 826.57 388.49 822.81 374.73 C 819.83 362.32 810.97 351.80 799.96 345.61 C 788.99 339.41 775.63 338.21 763.47 341.09 Z M 567.28 363.59 C 558.77 365.83 551.13 370.79 545.13 377.15 C 530.21 392.53 527.92 418.33 539.75 436.17 C 546.09 445.53 555.64 452.91 566.65 455.80 C 580.40 459.81 595.63 456.48 607.39 448.61 C 625.59 436.57 632.52 411.23 624.60 391.19 C 620.01 379.55 610.69 369.67 599.01 365.04 C 588.95 361.12 577.67 361.05 567.28 363.59 Z M 866.55 406.61 C 867.20 413.15 868.84 419.52 870.16 425.93 C 871.72 424.37 873.36 422.75 873.95 420.55 C 877.85 408.92 875.27 396.31 871.67 384.95 C 868.84 391.81 866.24 399.09 866.55 406.61 Z M 471.05 398.79 C 469.19 409.59 469.51 421.15 473.61 431.43 C 476.73 425.79 475.76 419.12 476.75 412.97 C 478.48 417.81 477.52 425.28 483.65 426.97 C 485.39 423.15 486.92 419.04 486.13 414.77 C 484.87 405.64 483.79 396.31 479.97 387.81 C 476.13 390.61 471.88 393.77 471.05 398.79 Z M 896.64 404.56 C 892.53 417.85 887.96 434.35 897.36 446.48 C 903.57 440.72 902.87 431.60 902.27 423.91 C 901.28 417.28 900.45 410.27 896.64 404.56 Z M 689.40 415.69 C 689.92 427.41 692.41 438.95 692.35 450.71 C 692.09 458.41 695.69 465.49 700.71 471.12 C 702.00 468.37 703.36 465.57 703.55 462.49 C 705.17 445.91 700.48 428.35 689.40 415.69 Z M 669.76 423.76 C 667.11 434.21 666.00 445.12 667.08 455.87 C 667.83 464.39 670.29 473.44 677.53 478.76 C 681.91 473.31 680.08 466.09 679.15 459.80 C 676.77 447.63 674.35 435.35 669.76 423.76 Z M 507.48 507.05 C 508.08 504.77 508.68 502.47 508.89 500.12 C 509.51 486.53 508.99 472.65 504.37 459.72 C 497.39 474.85 500.00 492.63 507.48 507.05 Z M 479.55 462.33 C 476.48 480.67 476.67 499.39 479.36 517.75 C 484.89 509.92 485.37 499.91 485.15 490.67 C 484.45 481.05 483.49 471.23 479.55 462.33 Z M 793.21 475.77 C 790.32 476.76 787.44 477.77 784.56 478.79 C 774.36 481.16 764.16 483.52 753.84 485.33 C 751.59 485.75 749.32 486.16 747.08 486.61 C 735.71 488.39 724.32 490.08 712.92 491.61 C 701.55 493.68 689.95 494.12 678.55 496.00 C 667.55 496.79 656.57 498.04 645.55 498.44 C 641.83 498.64 638.13 498.95 634.44 499.27 C 622.23 499.25 609.97 499.57 597.81 498.25 C 595.11 498.16 592.36 497.83 589.68 498.37 L 590.37 497.35 C 575.91 495.57 561.17 492.65 548.55 485.03 C 549.68 495.43 550.83 505.97 554.53 515.84 C 560.51 542.47 577.35 566.17 599.29 582.13 C 601.85 584.67 605.19 582.03 607.91 581.13 C 640.56 565.28 675.69 553.80 711.99 550.67 C 742.03 548.12 772.55 549.72 801.93 556.65 C 811.44 541.92 817.56 525.13 820.77 507.95 C 821.93 502.32 821.96 496.56 821.47 490.87 C 822.28 481.03 821.00 471.15 819.16 461.48 C 811.41 467.71 802.57 472.49 793.21 475.77 Z M 897.57 530.08 C 901.61 526.00 901.67 520.01 901.88 514.65 C 901.89 505.65 901.63 496.59 899.89 487.73 C 892.89 500.64 891.84 516.51 897.57 530.08 Z M 919.43 529.79 C 920.40 532.99 921.07 536.84 924.08 538.84 C 928.88 532.43 929.71 523.91 928.83 516.17 C 927.75 508.15 926.45 500.13 924.08 492.39 C 918.89 503.96 915.89 517.29 919.43 529.79 Z M 461.51 576.92 C 462.68 574.97 464.19 573.05 464.17 570.65 C 464.95 559.25 463.28 547.69 459.65 536.88 C 451.08 548.59 451.25 566.27 461.51 576.92 Z M 478.77 569.68 C 480.79 568.16 483.61 566.83 483.53 563.87 C 483.93 556.63 481.05 549.71 478.11 543.25 C 474.12 551.51 474.07 561.68 478.77 569.68 Z M 691.03 598.99 C 670.39 606.13 650.28 616.96 635.64 633.47 C 618.16 648.87 605.89 669.60 598.21 691.47 C 590.23 714.20 589.39 738.87 593.03 762.55 C 597.29 785.97 607.53 808.25 622.35 826.89 C 647.19 857.99 685.47 877.96 725.25 880.15 C 757.04 882.41 789.15 873.01 815.75 855.72 C 848.43 834.37 872.76 799.88 879.69 761.24 C 889.63 709.32 867.49 653.04 825.36 621.29 C 811.81 611.15 796.48 603.45 780.41 598.21 C 751.53 589.00 719.80 589.75 691.03 598.99 Z M 921.85 658.16 C 918.51 666.79 917.01 676.09 917.47 685.32 C 917.84 693.11 920.03 701.11 925.56 706.85 C 929.08 701.19 928.27 694.27 927.96 687.93 C 926.84 677.87 925.29 667.72 921.85 658.16 Z M 895.31 660.76 C 893.31 665.92 891.19 671.27 891.33 676.89 C 891.93 684.79 896.05 691.95 901.28 697.72 C 902.19 685.25 900.92 672.09 895.31 660.76 Z M 952.64 735.19 C 949.32 741.84 946.27 749.44 948.56 756.95 C 949.16 760.67 951.81 763.43 954.52 765.84 C 958.91 756.07 956.52 744.71 952.64 735.19 Z M 926.95 737.11 C 924.85 749.92 924.95 765.61 935.29 775.03 C 936.96 772.75 938.97 770.23 937.93 767.21 C 935.33 756.87 932.49 746.32 926.95 737.11 Z M 494.64 756.89 C 492.33 773.13 498.36 789.83 507.75 802.95 C 508.93 795.09 507.52 787.20 505.83 779.55 C 503.79 771.32 500.52 763.15 494.64 756.89 Z M 516.33 769.25 C 516.32 778.84 517.88 788.32 519.39 797.77 C 520.35 803.79 522.32 809.61 525.51 814.83 C 528.04 808.85 528.48 802.19 527.01 795.89 C 524.73 786.57 521.43 777.41 516.33 769.25 Z M 522.64 815.83 C 523.55 823.65 525.85 831.20 527.87 838.80 C 530.20 846.81 532.96 855.04 538.72 861.31 C 539.45 860.93 540.93 860.19 541.67 859.81 C 542.71 843.36 536.37 825.64 522.64 815.83 Z M 513.84 852.87 C 510.91 859.77 510.71 868.63 516.45 874.17 C 518.47 874.49 520.53 874.41 522.59 874.45 C 522.40 866.45 518.25 859.29 513.84 852.87 Z M 799.93 946.11 C 809.20 934.51 805.01 918.41 800.16 905.85 C 792.05 917.59 792.80 934.12 799.93 946.11 Z M 621.67 907.91 C 622.63 922.59 621.35 938.00 627.85 951.68 C 635.61 943.97 634.96 931.93 632.56 922.12 C 631.15 916.00 626.40 911.61 621.67 907.91 Z M 775.07 927.65 C 770.79 938.44 771.84 950.61 776.53 961.07 C 779.13 961.13 779.36 957.92 779.93 956.05 C 781.48 946.39 779.71 936.27 775.07 927.65 Z" fill="#f65984" fill-rule="nonzero" node-id="135" stroke="none" target-height="904.463" target-width="778.277" target-x="384.973" target-y="236.587"></path><path d="M 457.20 238.11 C 474.63 239.87 492.05 241.60 509.47 243.59 C 507.43 251.80 504.99 259.88 502.40 267.93 C 500.01 276.07 497.05 284.72 490.04 290.07 C 482.87 296.01 473.32 296.95 464.67 299.39 C 455.61 302.15 446.52 304.79 437.37 307.25 C 438.64 290.08 440.75 272.99 442.41 255.85 C 449.03 257.31 455.56 259.11 462.11 260.83 C 460.61 253.23 458.88 245.67 457.20 238.11 Z" fill="#4d4b49" fill-rule="nonzero" node-id="137" stroke="none" target-height="69.145996" target-width="72.094025" target-x="437.373" target-y="238.107"></path><path d="M 971.12 283.29 C 977.80 281.00 984.48 289.35 980.65 295.31 C 978.07 301.13 968.88 300.93 966.23 295.28 C 963.19 290.92 966.32 284.65 971.12 283.29 Z" fill="#f9628c" fill-rule="nonzero" node-id="139" stroke="none" target-height="20.132996" target-width="21.292969" target-x="963.187" target-y="281"></path><path d="M 759.41 320.49 C 755.91 310.24 758.17 298.93 762.80 289.41 C 767.21 297.56 767.64 306.97 768.27 316.01 C 768.68 321.96 768.39 327.95 767.59 333.87 C 762.49 331.35 761.21 325.37 759.41 320.49 Z" fill="#d86478" fill-rule="nonzero" node-id="141" stroke="none" target-height="44.45401" target-width="12.77301" target-x="755.907" target-y="289.413"></path><path d="M 735.69 299.81 C 736.85 297.05 737.56 293.35 740.59 292.03 C 745.83 303.35 746.25 317.68 739.32 328.37 C 735.19 319.59 732.27 309.32 735.69 299.81 Z" fill="#da6175" fill-rule="nonzero" node-id="143" stroke="none" target-height="36.345978" target-width="13.985962" target-x="732.267" target-y="292.027"></path><path d="M 590.87 320.05 C 591.39 314.84 593.23 309.88 595.37 305.15 C 598.45 320.51 602.49 336.15 600.35 351.92 C 593.69 342.85 589.32 331.41 590.87 320.05 Z" fill="#d96076" fill-rule="nonzero" node-id="145" stroke="none" target-height="46.77301" target-width="13.172974" target-x="589.32" target-y="305.147"></path><path d="M 568.64 306.69 C 570.84 308.75 571.24 311.87 571.96 314.63 C 573.93 324.45 577.15 334.57 574.57 344.63 C 569.67 339.83 566.75 333.41 564.99 326.88 C 563.44 319.99 565.68 312.89 568.64 306.69 Z" fill="#d76373" fill-rule="nonzero" node-id="147" stroke="none" target-height="37.93402" target-width="13.70697" target-x="563.44" target-y="306.693"></path><path d="M 1275.17 334.09 C 1280.13 332.05 1286.68 335.73 1286.49 341.35 C 1286.69 346.56 1280.96 350.45 1276.11 348.83 C 1269.61 347.21 1268.75 336.39 1275.17 334.09 Z" fill="#f56a8f" fill-rule="nonzero" node-id="149" stroke="none" target-height="18.399994" target-width="17.939941" target-x="1268.75" target-y="332.053"></path><path d="M 763.47 341.09 C 775.63 338.21 788.99 339.41 799.96 345.61 C 810.97 351.80 819.83 362.32 822.81 374.73 C 826.57 388.49 823.95 403.84 815.65 415.47 C 804.21 432.24 781.87 440.32 762.33 434.96 C 749.09 431.35 737.99 421.27 732.60 408.72 C 727.85 398.16 727.32 386.00 729.99 374.83 C 733.83 358.59 747.41 345.28 763.47 341.09 Z M 764.55 354.16 C 751.81 357.72 741.33 369.31 740.05 382.61 C 738.89 392.67 742.25 403.27 749.47 410.47 C 757.07 417.88 768.00 421.99 778.61 420.53 C 790.19 419.17 800.16 410.79 804.69 400.24 C 810.13 387.76 806.49 372.45 796.96 362.97 C 788.80 354.48 775.87 351.05 764.55 354.16 Z" fill="#fefdfe" fill-rule="nonzero" node-id="151" stroke="none" target-height="102.106995" target-width="99.25299" target-x="727.32" target-y="338.213"></path><path d="M 753.84 485.33 C 764.16 483.52 774.36 481.16 784.56 478.79 C 787.67 494.84 788.99 513.36 779.29 527.52 C 773.52 512.04 765.45 497.23 753.84 485.33 Z" fill="#fefdfe" fill-rule="nonzero" node-id="153" stroke="none" target-height="48.733032" target-width="35.146973" target-x="753.84" target-y="478.787"></path><path d="M 328.39 343.27 C 333.99 341.12 340.39 346.05 339.63 352.00 C 339.41 358.12 331.13 361.39 326.64 357.32 C 321.77 353.88 322.37 345.03 328.39 343.27 Z" fill="#f8678f" fill-rule="nonzero" node-id="155" stroke="none" target-height="20.266998" target-width="18.613983" target-x="321.773" target-y="341.12"></path><path d="M 1023.65 345.68 C 1058.99 345.55 1094.52 352.17 1126.89 366.53 C 1165.55 383.61 1199.01 411.07 1225.73 443.57 C 1238.49 459.57 1249.79 477.15 1256.15 496.72 C 1242.05 493.97 1227.72 491.63 1213.32 492.41 C 1198.27 493.29 1184.08 502.32 1176.75 515.47 C 1170.55 526.09 1168.81 538.60 1168.68 550.72 C 1168.63 566.24 1170.60 581.69 1172.39 597.09 C 1161.57 591.64 1149.59 588.27 1137.40 588.72 C 1120.77 588.93 1104.77 597.52 1094.72 610.64 C 1081.99 626.77 1077.53 647.64 1076.52 667.76 C 1069.00 662.32 1060.63 658.21 1051.89 655.17 L 1054.65 654.77 C 1060.20 653.31 1067.19 653.33 1070.68 648.00 C 1073.88 642.91 1071.41 636.64 1068.45 632.07 C 1068.99 624.23 1068.37 616.39 1067.52 608.60 C 1071.76 609.53 1076.52 610.79 1080.64 608.67 C 1084.75 606.60 1086.84 601.76 1086.33 597.31 C 1086.00 592.73 1082.67 589.20 1079.47 586.25 C 1079.20 566.25 1073.00 546.79 1064.60 528.81 C 1056.99 512.67 1046.84 497.87 1035.47 484.16 C 1030.41 487.75 1025.32 491.28 1020.20 494.76 C 1034.15 513.17 1044.28 534.39 1050.01 556.75 C 1051.23 561.56 1051.83 566.51 1052.39 571.45 C 1051.00 571.91 1049.64 572.37 1048.31 572.85 C 1038.28 576.56 1028.72 581.51 1018.48 584.59 C 1014.19 586.01 1009.71 584.88 1005.45 584.01 C 1000.01 582.83 994.55 581.76 989.11 580.60 C 985.40 579.71 981.67 579.00 977.95 578.28 C 972.88 562.97 969.27 547.21 964.01 531.96 C 959.28 534.00 954.57 536.07 949.84 538.09 C 948.64 533.21 947.41 528.35 946.21 523.47 C 967.51 516.31 987.81 505.21 1003.53 488.95 C 1018.48 474.32 1029.60 455.27 1032.33 434.32 C 1036.19 404.60 1031.47 374.39 1023.65 345.68 Z M 1044.84 360.99 C 1072.17 386.79 1095.88 416.87 1111.76 451.09 C 1120.85 470.73 1128.36 491.40 1131.41 512.92 C 1121.57 504.08 1112.47 494.23 1101.11 487.27 C 1106.45 495.84 1112.99 503.59 1118.59 512.00 C 1133.15 533.47 1144.63 556.95 1153.48 581.29 C 1155.39 579.67 1157.41 578.15 1159.04 576.20 C 1159.92 573.59 1159.75 570.76 1159.87 568.04 C 1160.64 511.63 1142.05 454.47 1105.45 411.17 C 1121.48 410.19 1137.61 410.97 1153.45 413.65 C 1162.45 415.03 1171.24 417.52 1180.27 418.77 C 1166.15 404.28 1149.00 392.95 1131.04 383.77 C 1103.99 371.12 1074.64 363.21 1044.84 360.99 Z" fill="#4f4c49" fill-rule="nonzero" node-id="157" stroke="none" target-height="322.213" target-width="309.937" target-x="946.213" target-y="345.547"></path><path d="M 972.77 621.96 C 980.05 621.41 987.35 620.91 994.65 620.65 C 1003.45 631.77 1009.68 644.63 1013.39 658.29 C 1012.79 658.65 1011.56 659.37 1010.95 659.73 C 1000.09 665.60 991.89 675.45 986.27 686.28 C 984.43 689.85 982.41 693.35 979.91 696.51 C 979.00 675.35 976.97 654.24 973.52 633.35 C 972.85 629.59 972.53 625.77 972.77 621.96 Z" fill="#4f4c49" fill-rule="nonzero" node-id="159" stroke="none" target-height="75.854004" target-width="40.856995" target-x="972.533" target-y="620.653"></path><path d="M 764.55 354.16 C 775.87 351.05 788.80 354.48 796.96 362.97 C 806.49 372.45 810.13 387.76 804.69 400.24 C 800.16 410.79 790.19 419.17 778.61 420.53 C 768.00 421.99 757.07 417.88 749.47 410.47 C 742.25 403.27 738.89 392.67 740.05 382.61 C 741.33 369.31 751.81 357.72 764.55 354.16 Z M 761.47 366.75 L 762.67 367.93 C 755.97 363.65 747.32 368.99 745.88 376.16 C 745.03 381.20 747.37 386.24 751.00 389.65 L 749.16 388.96 C 750.93 393.32 752.68 397.87 756.05 401.28 C 763.63 409.89 778.03 411.95 786.96 404.28 C 797.68 395.91 797.07 377.77 786.24 369.75 C 779.40 363.79 769.64 363.93 761.47 366.75 Z" fill="#b5a58e" fill-rule="nonzero" node-id="161" stroke="none" target-height="70.93399" target-width="71.23999" target-x="738.893" target-y="351.053"></path><path d="M 1044.84 360.99 C 1074.64 363.21 1103.99 371.12 1131.04 383.77 C 1149.00 392.95 1166.15 404.28 1180.27 418.77 C 1171.24 417.52 1162.45 415.03 1153.45 413.65 C 1137.61 410.97 1121.48 410.19 1105.45 411.17 C 1142.05 454.47 1160.64 511.63 1159.87 568.04 C 1159.75 570.76 1159.92 573.59 1159.04 576.20 C 1157.41 578.15 1155.39 579.67 1153.48 581.29 C 1144.63 556.95 1133.15 533.47 1118.59 512.00 C 1112.99 503.59 1106.45 495.84 1101.11 487.27 C 1112.47 494.23 1121.57 504.08 1131.41 512.92 C 1128.36 491.40 1120.85 470.73 1111.76 451.09 C 1095.88 416.87 1072.17 386.79 1044.84 360.99 Z" fill="#88567d" fill-rule="nonzero" node-id="163" stroke="none" target-height="220.30603" target-width="135.43005" target-x="1044.84" target-y="360.987"></path><path d="M 567.28 363.59 C 577.67 361.05 588.95 361.12 599.01 365.04 C 610.69 369.67 620.01 379.55 624.60 391.19 C 632.52 411.23 625.59 436.57 607.39 448.61 C 595.63 456.48 580.40 459.81 566.65 455.80 C 555.64 452.91 546.09 445.53 539.75 436.17 C 527.92 418.33 530.21 392.53 545.13 377.15 C 551.13 370.79 558.77 365.83 567.28 363.59 Z M 573.63 374.96 C 558.36 379.04 547.43 394.92 548.73 410.63 C 549.69 429.52 569.48 445.09 588.09 440.87 C 606.71 437.45 620.76 417.08 615.23 398.52 C 610.87 380.93 590.88 370.07 573.63 374.96 Z" fill="#fefcfd" fill-rule="nonzero" node-id="165" stroke="none" target-height="98.75998" target-width="104.60004" target-x="527.92" target-y="361.053"></path><path d="M 761.47 366.75 C 769.64 363.93 779.40 363.79 786.24 369.75 C 797.07 377.77 797.68 395.91 786.96 404.28 C 778.03 411.95 763.63 409.89 756.05 401.28 C 752.68 397.87 750.93 393.32 749.16 388.96 L 751.00 389.65 C 755.88 391.88 762.76 392.49 766.21 387.55 C 771.17 381.40 768.64 372.39 762.67 367.93 L 761.47 366.75 Z" fill="#424040" fill-rule="nonzero" node-id="167" stroke="none" target-height="48.160004" target-width="48.52002" target-x="749.16" target-y="363.787"></path><path d="M 745.88 376.16 C 747.32 368.99 755.97 363.65 762.67 367.93 C 768.64 372.39 771.17 381.40 766.21 387.55 C 762.76 392.49 755.88 391.88 751.00 389.65 C 747.37 386.24 745.03 381.20 745.88 376.16 Z" fill="#fcfcfc" fill-rule="nonzero" node-id="169" stroke="none" target-height="28.839996" target-width="26.145996" target-x="745.027" target-y="363.653"></path><path d="M 573.63 374.96 C 590.88 370.07 610.87 380.93 615.23 398.52 C 620.76 417.08 606.71 437.45 588.09 440.87 C 569.48 445.09 549.69 429.52 548.73 410.63 C 547.43 394.92 558.36 379.04 573.63 374.96 Z M 589.75 386.28 C 584.79 385.67 579.56 385.15 574.81 387.08 C 566.21 390.12 559.60 398.72 560.21 408.03 C 559.87 420.81 572.72 431.83 585.28 429.91 C 597.12 428.48 605.84 416.69 604.99 405.00 C 608.19 400.49 608.79 394.00 605.20 389.53 C 601.97 384.35 594.79 382.89 589.75 386.28 Z" fill="#b5a790" fill-rule="nonzero" node-id="171" stroke="none" target-height="75.026" target-width="73.33301" target-x="547.427" target-y="370.067"></path><path d="M 589.75 386.28 C 594.79 382.89 601.97 384.35 605.20 389.53 C 608.79 394.00 608.19 400.49 604.99 405.00 C 602.56 407.35 599.60 409.56 596.03 409.20 C 590.08 409.85 585.32 404.29 584.91 398.75 C 584.40 394.05 586.96 389.81 589.75 386.28 Z" fill="#fdfdfd" fill-rule="nonzero" node-id="173" stroke="none" target-height="26.959991" target-width="24.386963" target-x="584.4" target-y="382.893"></path><path d="M 548.55 485.03 C 561.17 492.65 575.91 495.57 590.37 497.35 L 589.68 498.37 C 580.97 511.20 573.99 525.07 568.15 539.40 C 562.77 532.08 557.68 524.41 554.53 515.84 C 550.83 505.97 549.68 495.43 548.55 485.03 Z" fill="#fdfdfd" fill-rule="nonzero" node-id="175" stroke="none" target-height="54.373016" target-width="41.82599" target-x="548.547" target-y="485.027"></path><path d="M 574.81 387.08 C 579.56 385.15 584.79 385.67 589.75 386.28 C 586.96 389.81 584.40 394.05 584.91 398.75 C 585.32 404.29 590.08 409.85 596.03 409.20 C 599.60 409.56 602.56 407.35 604.99 405.00 C 605.84 416.69 597.12 428.48 585.28 429.91 C 572.72 431.83 559.87 420.81 560.21 408.03 C 559.60 398.72 566.21 390.12 574.81 387.08 Z" fill="#434142" fill-rule="nonzero" node-id="177" stroke="none" target-height="46.679993" target-width="46.24005" target-x="559.6" target-y="385.147"></path><path d="M 866.55 406.61 C 866.24 399.09 868.84 391.81 871.67 384.95 C 875.27 396.31 877.85 408.92 873.95 420.55 C 873.36 422.75 871.72 424.37 870.16 425.93 C 868.84 419.52 867.20 413.15 866.55 406.61 Z" fill="#da6377" fill-rule="nonzero" node-id="179" stroke="none" target-height="40.986023" target-width="11.613037" target-x="866.24" target-y="384.947"></path><path d="M 471.05 398.79 C 471.88 393.77 476.13 390.61 479.97 387.81 C 483.79 396.31 484.87 405.64 486.13 414.77 C 486.92 419.04 485.39 423.15 483.65 426.97 C 477.52 425.28 478.48 417.81 476.75 412.97 C 475.76 419.12 476.73 425.79 473.61 431.43 C 469.51 421.15 469.19 409.59 471.05 398.79 Z" fill="#da6578" fill-rule="nonzero" node-id="181" stroke="none" target-height="43.614014" target-width="17.733002" target-x="469.187" target-y="387.813"></path><path d="M 128.59 406.91 C 129.91 400.87 131.04 394.79 131.92 388.67 C 132.16 394.92 133.09 401.13 134.97 407.11 C 141.20 407.69 147.40 408.52 153.60 409.33 C 147.28 410.57 140.93 411.65 134.59 412.76 C 133.59 419.07 132.29 425.32 131.88 431.71 C 130.88 425.27 129.80 418.85 128.60 412.45 C 122.21 411.69 115.84 410.76 109.53 409.44 C 115.95 409.05 122.27 407.97 128.59 406.91 Z" fill="#4d4b4c" fill-rule="nonzero" node-id="183" stroke="none" target-height="43.04001" target-width="44.06701" target-x="109.533" target-y="388.667"></path><path d="M 896.64 404.56 C 900.45 410.27 901.28 417.28 902.27 423.91 C 902.87 431.60 903.57 440.72 897.36 446.48 C 887.96 434.35 892.53 417.85 896.64 404.56 Z" fill="#db6374" fill-rule="nonzero" node-id="185" stroke="none" target-height="41.920013" target-width="15.612976" target-x="887.96" target-y="404.56"></path><path d="M 689.40 415.69 C 700.48 428.35 705.17 445.91 703.55 462.49 C 703.36 465.57 702.00 468.37 700.71 471.12 C 695.69 465.49 692.09 458.41 692.35 450.71 C 692.41 438.95 689.92 427.41 689.40 415.69 Z" fill="#da6176" fill-rule="nonzero" node-id="187" stroke="none" target-height="55.427002" target-width="15.772949" target-x="689.4" target-y="415.693"></path><path d="M 669.76 423.76 C 674.35 435.35 676.77 447.63 679.15 459.80 C 680.08 466.09 681.91 473.31 677.53 478.76 C 670.29 473.44 667.83 464.39 667.08 455.87 C 666.00 445.12 667.11 434.21 669.76 423.76 Z" fill="#da6176" fill-rule="nonzero" node-id="189" stroke="none" target-height="55" target-width="15.906982" target-x="666" target-y="423.76"></path><path d="M 494.64 756.89 C 500.52 763.15 503.79 771.32 505.83 779.55 C 507.52 787.20 508.93 795.09 507.75 802.95 C 498.36 789.83 492.33 773.13 494.64 756.89 Z" fill="#da6176" fill-rule="nonzero" node-id="191" stroke="none" target-height="46.054016" target-width="16.600006" target-x="492.333" target-y="756.893"></path><path d="M 222.04 479.36 C 250.16 457.31 282.52 440.95 316.47 429.93 C 316.97 452.85 318.53 475.97 324.75 498.13 C 330.13 518.61 340.84 538.41 358.23 551.07 C 381.72 568.12 411.03 574.69 439.49 577.17 C 439.63 581.37 439.81 585.59 440.01 589.80 C 432.69 589.67 425.39 589.36 418.08 588.89 C 418.73 600.31 419.49 611.72 420.41 623.11 C 416.45 625.17 412.47 627.17 408.52 629.27 C 400.77 633.57 392.85 637.57 385.12 641.91 C 380.36 644.55 375.55 647.09 370.75 649.64 C 362.23 647.28 353.93 644.25 345.72 641.04 C 343.31 617.64 347.68 594.15 354.25 571.76 C 348.60 570.41 342.96 569.07 337.31 567.72 C 320.99 601.00 316.24 639.20 321.57 675.72 C 315.47 681.07 310.72 687.88 308.47 695.73 C 298.15 691.83 286.81 690.76 275.93 692.59 C 261.37 694.71 248.55 702.64 237.27 711.69 C 235.97 695.49 233.45 679.29 228.52 663.77 C 225.29 653.40 220.43 643.19 212.25 635.79 C 202.89 626.45 188.85 622.87 175.97 624.97 C 158.64 627.64 143.87 637.80 129.43 647.07 C 129.85 615.81 141.00 585.71 155.91 558.59 C 172.75 528.40 194.72 500.73 222.04 479.36 Z M 265.23 467.87 C 231.03 486.07 200.60 512.59 180.63 546.01 C 194.28 538.57 207.60 530.33 222.24 524.89 C 232.04 521.32 242.13 518.53 252.35 516.37 C 249.29 523.84 245.43 530.95 242.53 538.48 C 232.17 565.13 227.79 594.21 230.85 622.71 C 233.11 642.95 237.27 662.96 242.65 682.59 C 243.47 687.57 248.01 690.04 252.01 692.25 C 254.23 666.64 258.13 641.05 265.91 616.48 C 268.39 608.20 271.83 600.24 274.28 591.96 C 265.09 599.27 260.13 610.15 252.85 619.08 C 249.92 597.33 252.03 575.13 256.63 553.76 C 260.32 537.45 264.53 521.19 270.96 505.73 C 278.80 486.96 288.36 468.91 299.47 451.87 C 287.67 456.32 276.33 461.92 265.23 467.87 Z" fill="#504c49" fill-rule="nonzero" node-id="193" stroke="none" target-height="281.75998" target-width="310.586" target-x="129.427" target-y="429.933"></path><path d="M 265.23 467.87 C 276.33 461.92 287.67 456.32 299.47 451.87 C 288.36 468.91 278.80 486.96 270.96 505.73 C 264.53 521.19 260.32 537.45 256.63 553.76 C 252.03 575.13 249.92 597.33 252.85 619.08 C 260.13 610.15 265.09 599.27 274.28 591.96 C 271.83 600.24 268.39 608.20 265.91 616.48 C 258.13 641.05 254.23 666.64 252.01 692.25 C 248.01 690.04 243.47 687.57 242.65 682.59 C 237.27 662.96 233.11 642.95 230.85 622.71 C 227.79 594.21 232.17 565.13 242.53 538.48 C 245.43 530.95 249.29 523.84 252.35 516.37 C 242.13 518.53 232.04 521.32 222.24 524.89 C 207.60 530.33 194.28 538.57 180.63 546.01 C 200.60 512.59 231.03 486.07 265.23 467.87 Z" fill="#88557c" fill-rule="nonzero" node-id="195" stroke="none" target-height="240.38599" target-width="118.84001" target-x="180.627" target-y="451.867"></path><path d="M 507.48 507.05 C 500.00 492.63 497.39 474.85 504.37 459.72 C 508.99 472.65 509.51 486.53 508.89 500.12 C 508.68 502.47 508.08 504.77 507.48 507.05 Z" fill="#d86376" fill-rule="nonzero" node-id="197" stroke="none" target-height="47.333008" target-width="12.119995" target-x="497.387" target-y="459.72"></path><path d="M 479.55 462.33 C 483.49 471.23 484.45 481.05 485.15 490.67 C 485.37 499.91 484.89 509.92 479.36 517.75 C 476.67 499.39 476.48 480.67 479.55 462.33 Z" fill="#d95f77" fill-rule="nonzero" node-id="199" stroke="none" target-height="55.414" target-width="8.892975" target-x="476.48" target-y="462.333"></path><path d="M 793.21 475.77 C 802.57 472.49 811.41 467.71 819.16 461.48 C 821.00 471.15 822.28 481.03 821.47 490.87 C 820.68 497.12 819.12 503.24 817.21 509.24 C 810.28 497.37 803.45 485.20 793.21 475.77 Z" fill="#fdfbfd" fill-rule="nonzero" node-id="201" stroke="none" target-height="47.75998" target-width="29.067017" target-x="793.213" target-y="461.48"></path><path d="M 1020.20 494.76 C 1025.32 491.28 1030.41 487.75 1035.47 484.16 C 1046.84 497.87 1056.99 512.67 1064.60 528.81 C 1073.00 546.79 1079.20 566.25 1079.47 586.25 C 1074.19 583.31 1068.52 581.23 1063.07 578.67 C 1058.32 576.31 1053.64 573.56 1048.31 572.85 C 1049.64 572.37 1051.00 571.91 1052.39 571.45 C 1051.83 566.51 1051.23 561.56 1050.01 556.75 C 1044.28 534.39 1034.15 513.17 1020.20 494.76 Z" fill="#88547d" fill-rule="nonzero" node-id="203" stroke="none" target-height="102.09299" target-width="59.26996" target-x="1020.2" target-y="484.16"></path><path d="M 897.57 530.08 C 891.84 516.51 892.89 500.64 899.89 487.73 C 901.63 496.59 901.89 505.65 901.88 514.65 C 901.67 520.01 901.61 526.00 897.57 530.08 Z" fill="#d76275" fill-rule="nonzero" node-id="205" stroke="none" target-height="42.347015" target-width="10.0529785" target-x="891.84" target-y="487.733"></path><path d="M 919.43 529.79 C 915.89 517.29 918.89 503.96 924.08 492.39 C 926.45 500.13 927.75 508.15 928.83 516.17 C 929.71 523.91 928.88 532.43 924.08 538.84 C 921.07 536.84 920.40 532.99 919.43 529.79 Z" fill="#db6179" fill-rule="nonzero" node-id="207" stroke="none" target-height="46.453033" target-width="13.813965" target-x="915.893" target-y="492.387"></path><path d="M 645.55 498.44 C 656.57 498.04 667.55 496.79 678.55 496.00 C 675.64 507.95 671.92 519.69 669.51 531.76 C 658.48 523.16 651.24 510.99 645.55 498.44 Z" fill="#fefdff" fill-rule="nonzero" node-id="209" stroke="none" target-height="35.76001" target-width="33" target-x="645.547" target-y="496"></path><path d="M 949.84 538.09 C 954.57 536.07 959.28 534.00 964.01 531.96 C 969.27 547.21 972.88 562.97 977.95 578.28 C 974.75 577.65 971.55 577.00 968.37 576.35 C 965.08 575.67 961.77 575.01 958.49 574.36 C 955.72 562.24 952.84 550.15 949.84 538.09 Z" fill="#82547a" fill-rule="nonzero" node-id="211" stroke="none" target-height="46.320007" target-width="28.106995" target-x="949.84" target-y="531.96"></path><path d="M 461.51 576.92 C 451.25 566.27 451.08 548.59 459.65 536.88 C 463.28 547.69 464.95 559.25 464.17 570.65 C 464.19 573.05 462.68 574.97 461.51 576.92 Z" fill="#df5d79" fill-rule="nonzero" node-id="213" stroke="none" target-height="40.039978" target-width="13.867004" target-x="451.08" target-y="536.88"></path><path d="M 478.77 569.68 C 474.07 561.68 474.12 551.51 478.11 543.25 C 481.05 549.71 483.93 556.63 483.53 563.87 C 483.61 566.83 480.79 568.16 478.77 569.68 Z" fill="#db6276" fill-rule="nonzero" node-id="215" stroke="none" target-height="26.427002" target-width="9.866028" target-x="474.067" target-y="543.253"></path><path d="M 337.31 567.72 C 342.96 569.07 348.60 570.41 354.25 571.76 C 347.68 594.15 343.31 617.64 345.72 641.04 C 339.65 638.13 335.73 645.23 334.00 649.96 C 332.23 654.27 336.48 657.49 338.71 660.61 C 332.84 665.45 327.08 670.44 321.57 675.72 C 316.24 639.20 320.99 601.00 337.31 567.72 Z" fill="#87547c" fill-rule="nonzero" node-id="217" stroke="none" target-height="108" target-width="38.013" target-x="316.24" target-y="567.72"></path><path d="M 1018.48 584.59 C 1028.72 581.51 1038.28 576.56 1048.31 572.85 C 1053.64 573.56 1058.32 576.31 1063.07 578.67 C 1056.08 585.76 1049.51 593.72 1047.39 603.72 C 1044.92 603.12 1042.43 602.57 1039.97 602.05 C 1046.64 608.75 1053.93 614.81 1060.01 622.08 C 1062.87 625.37 1065.73 628.64 1068.45 632.07 C 1071.41 636.64 1073.88 642.91 1070.68 648.00 C 1067.19 653.33 1060.20 653.31 1054.65 654.77 C 1046.35 645.05 1038.25 634.16 1025.84 629.49 C 1029.39 637.21 1033.44 644.73 1036.32 652.76 C 1037.71 657.63 1038.92 662.96 1037.21 667.89 C 1034.73 675.21 1023.81 677.71 1018.48 672.16 C 1015.63 668.07 1015.11 662.91 1013.67 658.25 C 1012.99 658.63 1011.63 659.36 1010.95 659.73 C 1011.56 659.37 1012.79 658.65 1013.39 658.29 C 1009.68 644.63 1003.45 631.77 994.65 620.65 C 995.68 613.83 996.93 606.93 996.17 600.01 C 995.61 594.79 994.81 589.60 994.61 584.35 C 992.79 583.07 990.96 581.77 989.11 580.60 C 994.55 581.76 1000.01 582.83 1005.45 584.01 C 1009.71 584.88 1014.19 586.01 1018.48 584.59 Z" fill="#f37a98" fill-rule="nonzero" node-id="219" stroke="none" target-height="104.85394" target-width="84.77301" target-x="989.107" target-y="572.853"></path><path d="M 968.37 576.35 C 971.55 577.00 974.75 577.65 977.95 578.28 C 981.67 579.00 985.40 579.71 989.11 580.60 C 990.96 581.77 992.79 583.07 994.61 584.35 C 994.81 589.60 995.61 594.79 996.17 600.01 C 996.93 606.93 995.68 613.83 994.65 620.65 C 987.35 620.91 980.05 621.41 972.77 621.96 C 973.68 614.51 971.89 607.16 970.85 599.83 C 969.84 592.03 967.01 584.29 968.37 576.35 Z" fill="#f06489" fill-rule="nonzero" node-id="221" stroke="none" target-height="45.613037" target-width="29.919983" target-x="967.013" target-y="576.347"></path><path d="M 1063.07 578.67 C 1068.52 581.23 1074.19 583.31 1079.47 586.25 C 1082.67 589.20 1086.00 592.73 1086.33 597.31 C 1086.84 601.76 1084.75 606.60 1080.64 608.67 C 1076.52 610.79 1071.76 609.53 1067.52 608.60 C 1064.69 607.91 1061.87 607.19 1059.05 606.53 C 1055.16 605.61 1051.27 604.67 1047.39 603.72 C 1049.51 593.72 1056.08 585.76 1063.07 578.67 Z" fill="#eb708e" fill-rule="nonzero" node-id="223" stroke="none" target-height="32.119995" target-width="39.44995" target-x="1047.39" target-y="578.667"></path><path d="M 418.08 588.89 C 425.39 589.36 432.69 589.67 440.01 589.80 C 440.13 597.00 441.55 604.20 440.76 611.39 C 434.55 616.17 427.20 619.24 420.41 623.11 C 419.49 611.72 418.73 600.31 418.08 588.89 Z" fill="#7a5575" fill-rule="nonzero" node-id="225" stroke="none" target-height="34.21399" target-width="23.46701" target-x="418.08" target-y="588.893"></path><path d="M 691.03 598.99 C 719.80 589.75 751.53 589.00 780.41 598.21 C 796.48 603.45 811.81 611.15 825.36 621.29 C 867.49 653.04 889.63 709.32 879.69 761.24 C 872.76 799.88 848.43 834.37 815.75 855.72 C 789.15 873.01 757.04 882.41 725.25 880.15 C 685.47 877.96 647.19 857.99 622.35 826.89 C 607.53 808.25 597.29 785.97 593.03 762.55 C 599.03 760.04 605.44 758.33 611.00 754.87 C 611.55 750.79 610.61 746.69 610.32 742.64 C 606.97 707.65 618.96 672.08 641.09 645.03 C 646.05 639.13 652.04 634.19 656.79 628.09 C 649.52 628.80 642.35 630.53 635.64 633.47 C 650.28 616.96 670.39 606.13 691.03 598.99 Z" fill="#fa9aad" fill-rule="nonzero" node-id="227" stroke="none" target-height="293.41302" target-width="296.60004" target-x="593.027" target-y="589"></path><path d="M 1039.97 602.05 C 1042.43 602.57 1044.92 603.12 1047.39 603.72 C 1051.27 604.67 1055.16 605.61 1059.05 606.53 C 1059.47 611.71 1059.79 616.88 1060.01 622.08 C 1053.93 614.81 1046.64 608.75 1039.97 602.05 Z" fill="#4e4e4f" fill-rule="nonzero" node-id="229" stroke="none" target-height="20.027039" target-width="20.04004" target-x="1039.97" target-y="602.053"></path><path d="M 1245.88 604.79 C 1251.05 602.35 1257.79 606.11 1257.97 611.92 C 1258.61 618.19 1251.00 623.21 1245.59 619.76 C 1239.96 616.84 1239.95 607.36 1245.88 604.79 Z" fill="#f7618b" fill-rule="nonzero" node-id="231" stroke="none" target-height="20.866028" target-width="18.660034" target-x="1239.95" target-y="602.347"></path><path d="M 1059.05 606.53 C 1061.87 607.19 1064.69 607.91 1067.52 608.60 C 1068.37 616.39 1068.99 624.23 1068.45 632.07 C 1065.73 628.64 1062.87 625.37 1060.01 622.08 C 1059.79 616.88 1059.47 611.71 1059.05 606.53 Z" fill="#7e537b" fill-rule="nonzero" node-id="233" stroke="none" target-height="25.533997" target-width="9.939941" target-x="1059.05" target-y="606.533"></path><path d="M 635.64 633.47 C 642.35 630.53 649.52 628.80 656.79 628.09 C 652.04 634.19 646.05 639.13 641.09 645.03 C 618.96 672.08 606.97 707.65 610.32 742.64 C 610.61 746.69 611.55 750.79 611.00 754.87 C 605.44 758.33 599.03 760.04 593.03 762.55 C 589.39 738.87 590.23 714.20 598.21 691.47 C 605.89 669.60 618.16 648.87 635.64 633.47 Z" fill="#f1c0bd" fill-rule="nonzero" node-id="235" stroke="none" target-height="134.45398" target-width="67.39996" target-x="589.387" target-y="628.093"></path><path d="M 385.12 641.91 C 392.85 637.57 400.77 633.57 408.52 629.27 C 407.04 634.71 411.08 639.84 409.27 645.28 C 406.17 657.93 411.63 670.61 409.53 683.37 C 403.59 682.61 397.65 681.89 391.76 680.77 C 388.08 668.15 383.88 655.25 385.12 641.91 Z" fill="#f16589" fill-rule="nonzero" node-id="237" stroke="none" target-height="54.105957" target-width="27.74701" target-x="383.88" target-y="629.267"></path><path d="M 1025.84 629.49 C 1038.25 634.16 1046.35 645.05 1054.65 654.77 L 1051.89 655.17 C 1046.73 654.13 1041.52 653.47 1036.32 652.76 C 1033.44 644.73 1029.39 637.21 1025.84 629.49 Z" fill="#474748" fill-rule="nonzero" node-id="239" stroke="none" target-height="25.679993" target-width="28.810059" target-x="1025.84" target-y="629.493"></path><path d="M 334.00 649.96 C 335.73 645.23 339.65 638.13 345.72 641.04 C 353.93 644.25 362.23 647.28 370.75 649.64 C 375.55 647.09 380.36 644.55 385.12 641.91 C 383.88 655.25 388.08 668.15 391.76 680.77 C 387.57 691.44 387.55 703.21 388.83 714.45 C 389.63 720.75 391.85 726.97 391.29 733.39 C 388.31 739.23 380.01 740.84 374.59 737.55 C 370.29 735.31 368.13 730.69 366.75 726.29 C 365.81 716.40 366.60 706.47 367.47 696.61 C 362.07 701.75 356.92 707.52 354.51 714.72 C 352.53 719.55 352.32 725.04 349.59 729.53 C 347.01 732.05 343.33 732.89 340.09 734.21 C 332.01 731.92 327.12 722.36 331.35 714.72 C 332.76 711.40 334.31 708.15 335.71 704.83 C 339.12 696.20 343.95 688.23 347.65 679.73 C 340.13 685.79 334.63 693.76 328.25 700.91 C 326.63 702.69 324.99 704.47 323.40 706.28 C 316.96 706.45 308.53 703.29 308.47 695.73 C 310.72 687.88 315.47 681.07 321.57 675.72 C 327.08 670.44 332.84 665.45 338.71 660.61 C 336.48 657.49 332.23 654.27 334.00 649.96 Z" fill="#f27b97" fill-rule="nonzero" node-id="241" stroke="none" target-height="102.70703" target-width="83.38599" target-x="308.467" target-y="638.133"></path><path d="M 921.85 658.16 C 925.29 667.72 926.84 677.87 927.96 687.93 C 928.27 694.27 929.08 701.19 925.56 706.85 C 920.03 701.11 917.84 693.11 917.47 685.32 C 917.01 676.09 918.51 666.79 921.85 658.16 Z" fill="#d96278" fill-rule="nonzero" node-id="243" stroke="none" target-height="48.693054" target-width="12.067017" target-x="917.013" target-y="658.16"></path><path d="M 895.31 660.76 C 900.92 672.09 902.19 685.25 901.28 697.72 C 896.05 691.95 891.93 684.79 891.33 676.89 C 891.19 671.27 893.31 665.92 895.31 660.76 Z" fill="#d96176" fill-rule="nonzero" node-id="245" stroke="none" target-height="36.95996" target-width="11" target-x="891.187" target-y="660.76"></path><path d="M 775.07 927.65 C 779.71 936.27 781.48 946.39 779.93 956.05 C 779.36 957.92 779.13 961.13 776.53 961.07 C 771.84 950.61 770.79 938.44 775.07 927.65 Z" fill="#d96176" fill-rule="nonzero" node-id="247" stroke="none" target-height="33.47998" target-width="10.692993" target-x="770.787" target-y="927.653"></path><path d="M 1249.39 679.28 C 1250.04 685.17 1250.93 691.05 1252.55 696.77 C 1258.84 697.71 1265.16 698.55 1271.40 699.88 C 1265.13 700.37 1258.96 701.60 1252.75 702.45 C 1251.31 708.23 1250.25 714.08 1249.39 719.96 L 1251.28 720.59 C 1250.52 720.67 1249.79 720.68 1249.07 720.63 C 1249.03 714.37 1248.13 708.13 1246.25 702.17 C 1240.04 701.72 1233.88 700.75 1227.72 699.92 C 1234.05 698.52 1240.48 697.64 1246.87 696.49 C 1248.00 690.80 1248.93 685.07 1249.39 679.28 Z" fill="#484448" fill-rule="nonzero" node-id="249" stroke="none" target-height="41.399963" target-width="43.680054" target-x="1227.72" target-y="679.28"></path><path d="M 328.25 700.91 C 334.63 693.76 340.13 685.79 347.65 679.73 C 343.95 688.23 339.12 696.20 335.71 704.83 C 333.21 703.51 330.73 702.21 328.25 700.91 Z" fill="#575252" fill-rule="nonzero" node-id="251" stroke="none" target-height="25.094055" target-width="19.400024" target-x="328.253" target-y="679.733"></path><path d="M 354.51 714.72 C 356.92 707.52 362.07 701.75 367.47 696.61 C 366.60 706.47 365.81 716.40 366.75 726.29 C 357.80 735.76 350.76 746.80 345.21 758.56 C 343.35 750.48 341.61 742.36 340.09 734.21 C 343.33 732.89 347.01 732.05 349.59 729.53 C 352.32 725.04 352.53 719.55 354.51 714.72 Z" fill="#4e4b49" fill-rule="nonzero" node-id="253" stroke="none" target-height="61.94702" target-width="27.374023" target-x="340.093" target-y="696.613"></path><path d="M 115.13 700.75 C 122.56 698.16 130.93 705.57 128.57 713.28 C 127.04 720.72 116.65 723.44 111.48 718.03 C 106.04 713.17 107.47 702.43 115.13 700.75 Z" fill="#966890" fill-rule="nonzero" node-id="255" stroke="none" target-height="25.28003" target-width="24.892998" target-x="106.04" target-y="698.16"></path><path d="M 328.25 700.91 C 330.73 702.21 333.21 703.51 335.71 704.83 C 334.31 708.15 332.76 711.40 331.35 714.72 C 328.76 711.84 326.16 708.99 323.40 706.28 C 324.99 704.47 326.63 702.69 328.25 700.91 Z" fill="#434a4a" fill-rule="nonzero" node-id="257" stroke="none" target-height="13.812988" target-width="12.307007" target-x="323.4" target-y="700.907"></path><path d="M 952.64 735.19 C 956.52 744.71 958.91 756.07 954.52 765.84 C 951.81 763.43 949.16 760.67 948.56 756.95 C 946.27 749.44 949.32 741.84 952.64 735.19 Z" fill="#dc5f76" fill-rule="nonzero" node-id="259" stroke="none" target-height="30.653015" target-width="12.639954" target-x="946.267" target-y="735.187"></path><path d="M 926.95 737.11 C 932.49 746.32 935.33 756.87 937.93 767.21 C 938.97 770.23 936.96 772.75 935.29 775.03 C 924.95 765.61 924.85 749.92 926.95 737.11 Z" fill="#db6077" fill-rule="nonzero" node-id="261" stroke="none" target-height="37.919983" target-width="14.119995" target-x="924.853" target-y="737.107"></path><path d="M 154.29 769.23 C 170.01 765.81 186.29 770.55 199.39 779.40 C 206.76 783.64 213.48 791.03 222.72 790.15 C 234.09 789.31 244.72 784.33 256.08 783.31 C 264.96 782.64 274.20 782.20 282.72 785.32 C 294.91 789.65 305.51 799.49 309.15 812.11 C 312.28 822.48 309.33 834.11 302.04 842.04 C 290.32 855.32 272.37 860.33 255.63 863.77 C 226.79 869.07 197.29 869.84 168.07 868.56 C 153.93 867.35 139.23 865.72 126.59 858.79 C 117.68 853.88 111.35 844.76 109.79 834.73 C 104.29 805.80 125.44 774.89 154.29 769.23 Z M 151.43 773.07 C 129.57 779.04 113.24 800.23 111.99 822.71 C 111.43 833.93 114.59 846.27 123.96 853.33 C 136.71 862.85 153.28 864.03 168.56 865.52 C 186.20 866.39 203.92 866.41 221.52 864.89 C 237.37 863.96 253.25 861.88 268.56 857.53 C 278.95 854.43 289.37 850.15 297.43 842.68 C 305.63 835.09 309.92 822.71 305.84 811.96 C 300.47 795.77 283.32 785.40 266.61 785.77 C 251.03 785.16 236.56 792.07 221.24 793.52 C 212.07 793.53 205.29 786.47 197.92 782.04 C 184.45 773.03 167.35 768.01 151.43 773.07 Z" fill="#353434" fill-rule="nonzero" node-id="263" stroke="none" target-height="104.02704" target-width="207.987" target-x="104.293" target-y="765.813"></path><path d="M 516.33 769.25 C 521.43 777.41 524.73 786.57 527.01 795.89 C 528.48 802.19 528.04 808.85 525.51 814.83 C 522.32 809.61 520.35 803.79 519.39 797.77 C 517.88 788.32 516.32 778.84 516.33 769.25 Z" fill="#d95e75" fill-rule="nonzero" node-id="265" stroke="none" target-height="45.574036" target-width="12.159973" target-x="516.32" target-y="769.253"></path><path d="M 151.43 773.07 C 167.35 768.01 184.45 773.03 197.92 782.04 C 205.29 786.47 212.07 793.53 221.24 793.52 C 236.56 792.07 251.03 785.16 266.61 785.77 C 283.32 785.40 300.47 795.77 305.84 811.96 C 309.92 822.71 305.63 835.09 297.43 842.68 C 289.37 850.15 278.95 854.43 268.56 857.53 C 253.25 861.88 237.37 863.96 221.52 864.89 C 203.92 866.41 186.20 866.39 168.56 865.52 C 153.28 864.03 136.71 862.85 123.96 853.33 C 114.59 846.27 111.43 833.93 111.99 822.71 C 113.24 800.23 129.57 779.04 151.43 773.07 Z" fill="#fdfcfd" fill-rule="nonzero" node-id="267" stroke="none" target-height="98.400024" target-width="198.49301" target-x="111.427" target-y="768.013"></path><path d="M 522.64 815.83 C 536.37 825.64 542.71 843.36 541.67 859.81 C 540.93 860.19 539.45 860.93 538.72 861.31 C 532.96 855.04 530.20 846.81 527.87 838.80 C 525.85 831.20 523.55 823.65 522.64 815.83 Z" fill="#db6175" fill-rule="nonzero" node-id="269" stroke="none" target-height="45.47998" target-width="20.066956" target-x="522.64" target-y="815.827"></path><path d="M 513.84 852.87 C 518.25 859.29 522.40 866.45 522.59 874.45 C 520.53 874.41 518.47 874.49 516.45 874.17 C 510.71 868.63 510.91 859.77 513.84 852.87 Z" fill="#df5d7a" fill-rule="nonzero" node-id="271" stroke="none" target-height="21.625977" target-width="11.879974" target-x="510.707" target-y="852.867"></path><path d="M 1202.61 892.85 C 1203.00 897.76 1203.72 902.64 1204.83 907.47 C 1209.65 908.28 1214.52 908.87 1219.40 909.44 C 1214.52 910.59 1209.63 911.59 1204.76 912.80 C 1203.79 918.07 1202.97 923.36 1202.57 928.72 C 1201.80 923.28 1201.51 917.68 1199.67 912.49 C 1194.75 911.01 1189.47 911.25 1184.40 910.60 C 1189.64 909.45 1194.89 908.41 1200.13 907.25 C 1201.00 902.45 1202.00 897.68 1202.61 892.85 Z" fill="#494647" fill-rule="nonzero" node-id="273" stroke="none" target-height="35.866943" target-width="35" target-x="1184.4" target-y="892.853"></path><path d="M 799.93 946.11 C 792.80 934.12 792.05 917.59 800.16 905.85 C 805.01 918.41 809.20 934.51 799.93 946.11 Z" fill="#d96578" fill-rule="nonzero" node-id="275" stroke="none" target-height="40.253967" target-width="17.147034" target-x="792.053" target-y="905.853"></path><path d="M 621.67 907.91 C 626.40 911.61 631.15 916.00 632.56 922.12 C 634.96 931.93 635.61 943.97 627.85 951.68 C 621.35 938.00 622.63 922.59 621.67 907.91 Z" fill="#d86476" fill-rule="nonzero" node-id="277" stroke="none" target-height="43.77301" target-width="14.265991" target-x="621.347" target-y="907.907"></path><path d="M 312.43 924.48 C 321.43 920.65 331.45 930.97 327.96 939.92 C 325.44 948.15 313.44 950.51 307.84 944.12 C 301.79 938.39 304.36 926.84 312.43 924.48 Z" fill="#f7aab8" fill-rule="nonzero" node-id="279" stroke="none" target-height="29.854004" target-width="29.666016" target-x="301.787" target-y="920.653"></path><path d="M 1001.57 933.53 C 1010.37 930.79 1019.79 940.61 1016.00 949.29 C 1012.96 957.93 999.96 959.23 995.07 951.57 C 989.84 945.37 993.51 934.91 1001.57 933.53 Z" fill="#f8a8b7" fill-rule="nonzero" node-id="281" stroke="none" target-height="28.440002" target-width="29.949951" target-x="989.84" target-y="930.787"></path><path d="M 1188.07 1058.41 C 1196.43 1033.80 1205.35 1009.37 1215.04 985.25 C 1217.15 1011.79 1218.01 1038.40 1219.41 1064.99 C 1225.36 1065.00 1231.33 1065.04 1237.29 1064.96 C 1243.43 1051.63 1249.60 1038.32 1256.21 1025.21 C 1258.95 1038.68 1261.68 1052.15 1263.80 1065.73 C 1275.71 1060.13 1286.89 1053.15 1297.97 1046.08 C 1297.24 1052.55 1296.61 1059.03 1295.63 1065.47 C 1318.87 1065.57 1342.09 1064.67 1365.33 1065.41 L 1365.33 1365.33 L 0.00 1365.33 L 0.00 1065.79 C 24.57 1064.99 49.19 1066.01 73.77 1065.08 C 75.37 1051.64 76.65 1038.16 78.24 1024.72 C 85.29 1037.84 91.77 1051.25 98.51 1064.55 C 98.89 1064.69 99.67 1064.97 100.07 1065.12 C 100.17 1039.92 101.76 1014.76 103.60 989.64 C 111.39 1008.63 118.75 1027.79 126.76 1046.68 C 144.91 1028.84 161.27 1009.29 178.71 990.77 C 172.43 1015.55 165.51 1040.16 159.89 1065.09 C 197.13 1065.17 234.39 1065.21 271.63 1065.12 C 273.23 1054.20 274.53 1043.25 275.61 1032.28 C 282.63 1043.12 289.01 1054.32 295.07 1065.73 C 296.35 1063.28 297.57 1060.81 298.80 1058.36 C 302.21 1061.00 305.44 1063.91 309.11 1066.21 C 308.59 1051.09 304.01 1036.51 302.68 1021.49 C 314.95 1035.92 327.41 1050.20 339.55 1064.77 C 340.12 1064.88 341.29 1065.09 341.87 1065.20 C 343.00 1050.03 342.79 1034.76 344.72 1019.67 C 350.24 1032.89 356.47 1045.83 361.81 1059.15 C 365.75 1045.83 368.76 1032.24 373.15 1019.05 C 375.96 1033.72 379.08 1048.33 381.32 1063.12 C 393.57 1044.71 405.65 1026.16 418.49 1008.15 C 417.49 1027.15 414.92 1046.00 413.49 1064.96 C 426.28 1064.97 439.08 1065.13 451.87 1065.08 C 455.93 1049.44 459.96 1033.80 464.05 1018.19 C 467.99 1034.09 472.03 1049.99 475.73 1065.96 C 481.05 1061.93 484.13 1055.93 487.83 1050.55 C 496.87 1037.45 505.19 1023.87 513.99 1010.61 C 513.96 1028.79 513.71 1046.96 513.72 1065.13 C 564.92 1065.11 616.11 1065.15 667.31 1065.51 C 662.73 1080.75 656.89 1095.59 652.44 1110.87 C 649.67 1119.67 653.72 1129.72 661.49 1134.53 C 668.77 1139.33 679.52 1136.95 684.39 1129.83 C 686.13 1126.69 686.11 1122.97 686.61 1119.52 C 687.47 1125.28 689.16 1131.56 694.43 1134.88 C 702.77 1141.05 715.17 1136.32 719.63 1127.61 C 722.01 1122.32 721.11 1116.31 720.61 1110.72 C 723.15 1116.89 728.92 1122.12 735.97 1121.45 C 749.85 1120.80 759.76 1104.13 753.44 1091.68 C 748.85 1082.65 743.08 1074.25 738.87 1065.03 C 749.92 1065.28 760.99 1065.04 772.04 1065.23 C 778.75 1065.53 785.48 1065.63 792.19 1065.11 C 792.60 1052.20 793.13 1039.31 794.33 1026.44 C 799.52 1039.33 804.84 1052.17 809.88 1065.12 C 814.45 1065.13 819.03 1065.09 823.60 1065.03 C 828.41 1055.23 833.63 1045.63 839.11 1036.19 C 839.59 1045.81 839.96 1055.44 840.33 1065.08 C 845.85 1065.07 851.37 1065.07 856.89 1065.00 C 860.53 1055.25 864.61 1045.67 868.25 1035.92 C 869.92 1045.63 871.16 1055.40 872.51 1065.17 C 898.52 1064.83 924.56 1065.55 950.55 1065.13 C 950.29 1053.52 949.25 1041.96 948.77 1030.37 C 958.87 1041.95 968.32 1054.05 978.40 1065.63 C 979.08 1062.27 979.73 1058.93 980.45 1055.60 C 984.15 1059.03 987.69 1062.64 991.60 1065.87 C 990.28 1051.31 986.64 1037.11 984.96 1022.60 C 997.95 1036.68 1010.16 1051.43 1023.17 1065.47 C 1025.20 1048.96 1024.31 1032.17 1027.60 1015.80 C 1031.17 1030.17 1035.88 1044.24 1038.99 1058.73 C 1049.56 1042.35 1060.16 1025.96 1071.28 1009.93 C 1070.29 1028.36 1068.15 1046.69 1067.07 1065.11 C 1071.09 1065.05 1075.12 1065.00 1079.17 1064.95 C 1081.89 1057.09 1085.19 1049.43 1089.37 1042.24 C 1090.44 1049.87 1091.97 1057.43 1092.85 1065.09 C 1110.68 1065.05 1128.49 1065.16 1146.32 1065.16 C 1157.05 1040.08 1167.21 1014.75 1177.85 989.63 C 1181.33 1012.53 1185.32 1035.40 1188.07 1058.41 Z M 605.28 1188.44 C 593.07 1189.92 580.75 1188.71 568.52 1189.92 C 521.91 1192.40 475.12 1195.28 429.11 1203.63 C 418.88 1205.91 408.17 1207.71 399.17 1213.44 C 401.36 1215.15 403.49 1217.01 406.12 1218.04 C 419.05 1222.92 432.84 1224.84 446.43 1227.04 C 488.32 1232.96 530.57 1235.99 572.80 1237.93 C 584.56 1239.33 596.43 1237.99 608.17 1239.40 C 627.04 1240.73 646.00 1239.36 664.88 1240.63 C 671.69 1241.19 678.53 1241.24 685.37 1241.17 C 712.91 1241.20 740.44 1241.35 767.97 1241.07 C 785.71 1239.63 803.51 1240.15 821.29 1239.96 C 834.68 1240.21 847.99 1238.20 861.39 1238.69 C 873.85 1239.15 886.23 1237.24 898.68 1237.32 C 919.59 1236.01 940.49 1234.55 961.31 1232.23 C 988.49 1229.31 1015.92 1226.84 1042.41 1219.76 C 1046.35 1219.00 1049.68 1216.80 1052.15 1213.68 C 1046.77 1210.40 1040.87 1208.07 1034.73 1206.69 C 1018.44 1203.01 1001.85 1200.88 985.32 1198.65 C 953.92 1194.35 922.24 1192.99 890.67 1190.68 C 879.97 1190.84 869.39 1189.09 858.71 1189.31 C 850.23 1189.43 841.83 1188.08 833.36 1188.04 C 816.89 1187.79 800.40 1188.39 783.99 1186.81 C 745.79 1186.80 707.57 1186.71 669.37 1186.89 C 648.05 1188.81 626.63 1187.31 605.28 1188.44 Z" fill="#4e4b47" fill-rule="nonzero" node-id="283" stroke="none" target-height="380.07697" target-width="1365.33" target-x="0" target-y="985.253"></path><path d="M 567.29 1006.43 C 568.69 1001.97 568.96 997.29 569.36 992.68 C 569.97 997.57 571.03 1002.41 572.60 1007.09 C 577.83 1007.64 583.03 1008.39 588.23 1009.28 C 582.95 1010.01 577.71 1010.93 572.44 1011.61 C 571.20 1016.81 570.09 1022.07 569.39 1027.39 C 569.15 1022.12 568.21 1016.91 567.16 1011.76 C 562.45 1011.21 557.80 1010.28 553.16 1009.41 C 557.91 1008.67 562.76 1008.15 567.29 1006.43 Z" fill="#4b494a" fill-rule="nonzero" node-id="285" stroke="none" target-height="34.710022" target-width="35.067017" target-x="553.16" target-y="992.68"></path><path d="M 605.28 1188.44 C 626.63 1187.31 648.05 1188.81 669.37 1186.89 C 707.57 1186.71 745.79 1186.80 783.99 1186.81 C 800.40 1188.39 816.89 1187.79 833.36 1188.04 C 841.83 1188.08 850.23 1189.43 858.71 1189.31 C 869.39 1189.09 879.97 1190.84 890.67 1190.68 C 922.24 1192.99 953.92 1194.35 985.32 1198.65 C 1001.85 1200.88 1018.44 1203.01 1034.73 1206.69 C 1040.87 1208.07 1046.77 1210.40 1052.15 1213.68 C 1049.68 1216.80 1046.35 1219.00 1042.41 1219.76 C 1015.92 1226.84 988.49 1229.31 961.31 1232.23 C 940.49 1234.55 919.59 1236.01 898.68 1237.32 C 886.23 1237.24 873.85 1239.15 861.39 1238.69 C 847.99 1238.20 834.68 1240.21 821.29 1239.96 C 803.51 1240.15 785.71 1239.63 767.97 1241.07 C 740.44 1241.35 712.91 1241.20 685.37 1241.17 C 678.53 1241.24 671.69 1241.19 664.88 1240.63 C 646.00 1239.36 627.04 1240.73 608.17 1239.40 C 596.43 1237.99 584.56 1239.33 572.80 1237.93 C 530.57 1235.99 488.32 1232.96 446.43 1227.04 C 432.84 1224.84 419.05 1222.92 406.12 1218.04 C 403.49 1217.01 401.36 1215.15 399.17 1213.44 C 408.17 1207.71 418.88 1205.91 429.11 1203.63 C 475.12 1195.28 521.91 1192.40 568.52 1189.92 C 580.75 1188.71 593.07 1189.92 605.28 1188.44 Z" fill="#454341" fill-rule="nonzero" node-id="287" stroke="none" target-height="54.640015" target-width="652.97705" target-x="399.173" target-y="1186.71"></path></g></svg>